<mxfile host="app.diagrams.net" modified="2023-12-11T09:07:12.092Z" agent="Mozilla/5.0 (X11; Ubuntu; Linux x86_64; rv:120.0) Gecko/20100101 Firefox/120.0" etag="mhi9R1QeACcCc-LJm3N5" version="22.1.7" type="device" pages="3">
  <diagram id="ScwInh1OTUH-fO8-h9bV" name="OUTLINE">
    <mxGraphModel dx="808" dy="-646" grid="1" gridSize="10" guides="1" tooltips="1" connect="1" arrows="1" fold="1" page="1" pageScale="1" pageWidth="850" pageHeight="1100" math="0" shadow="0">
      <root>
        <mxCell id="0" />
        <mxCell id="1" parent="0" />
        <mxCell id="s-UL826C9sRYQY8fjNlG-1" value="" style="rounded=0;whiteSpace=wrap;html=1;fontSize=20;" parent="1" vertex="1">
          <mxGeometry x="280" y="1320" width="440" height="400" as="geometry" />
        </mxCell>
        <mxCell id="s-UL826C9sRYQY8fjNlG-2" value="&lt;font style=&quot;font-size: 20px;&quot;&gt;synchronizer&lt;/font&gt;" style="rounded=0;whiteSpace=wrap;html=1;fontSize=20;" parent="1" vertex="1">
          <mxGeometry x="280" y="1280" width="440" height="40" as="geometry" />
        </mxCell>
        <mxCell id="s-UL826C9sRYQY8fjNlG-3" value="synch_din" style="text;html=1;align=left;verticalAlign=middle;resizable=0;points=[];autosize=1;strokeColor=none;fillColor=none;fontSize=20;rotation=0;" parent="1" vertex="1">
          <mxGeometry x="285.5" y="1500.5" width="110" height="40" as="geometry" />
        </mxCell>
        <mxCell id="s-UL826C9sRYQY8fjNlG-4" value="synch_dout" style="text;html=1;align=left;verticalAlign=middle;resizable=0;points=[];autosize=1;strokeColor=none;fillColor=none;fontSize=20;rotation=0;" parent="1" vertex="1">
          <mxGeometry x="285" y="1540.5" width="130" height="40" as="geometry" />
        </mxCell>
        <mxCell id="s-UL826C9sRYQY8fjNlG-5" value="&lt;font style=&quot;font-size: 20px;&quot;&gt;synch_strobe&lt;/font&gt;" style="text;html=1;align=left;verticalAlign=middle;resizable=0;points=[];autosize=1;strokeColor=none;fillColor=none;fontSize=20;rotation=0;" parent="1" vertex="1">
          <mxGeometry x="285.5" y="1460.5" width="140" height="40" as="geometry" />
        </mxCell>
        <mxCell id="s-UL826C9sRYQY8fjNlG-6" value="" style="triangle;whiteSpace=wrap;html=1;direction=east;fontSize=20;rotation=0;" parent="1" vertex="1">
          <mxGeometry x="280" y="1670" width="20" height="20" as="geometry" />
        </mxCell>
        <mxCell id="s-UL826C9sRYQY8fjNlG-7" value="synch_validout" style="text;html=1;align=left;verticalAlign=middle;resizable=0;points=[];autosize=1;strokeColor=none;fillColor=none;fontSize=20;rotation=0;" parent="1" vertex="1">
          <mxGeometry x="285" y="1580.5" width="150" height="40" as="geometry" />
        </mxCell>
        <mxCell id="s-UL826C9sRYQY8fjNlG-8" value="burstcount" style="text;html=1;align=left;verticalAlign=middle;resizable=0;points=[];autosize=1;strokeColor=none;fillColor=none;fontSize=20;rotation=0;" parent="1" vertex="1">
          <mxGeometry x="285" y="1620.5" width="120" height="40" as="geometry" />
        </mxCell>
        <mxCell id="s-UL826C9sRYQY8fjNlG-9" value="synch_busy" style="text;html=1;align=left;verticalAlign=middle;resizable=0;points=[];autosize=1;strokeColor=none;fillColor=none;fontSize=20;rotation=0;" parent="1" vertex="1">
          <mxGeometry x="285.5" y="1420.5" width="130" height="40" as="geometry" />
        </mxCell>
        <mxCell id="s-UL826C9sRYQY8fjNlG-10" value="synch_enable" style="text;html=1;align=left;verticalAlign=middle;resizable=0;points=[];autosize=1;strokeColor=none;fillColor=none;fontSize=20;rotation=0;" parent="1" vertex="1">
          <mxGeometry x="285.5" y="1340" width="150" height="40" as="geometry" />
        </mxCell>
        <mxCell id="s-UL826C9sRYQY8fjNlG-11" value="synch_clear_n" style="text;html=1;align=left;verticalAlign=middle;resizable=0;points=[];autosize=1;strokeColor=none;fillColor=none;fontSize=20;rotation=0;" parent="1" vertex="1">
          <mxGeometry x="285.5" y="1380" width="150" height="40" as="geometry" />
        </mxCell>
        <mxCell id="s-UL826C9sRYQY8fjNlG-12" value="counter_enable" style="text;html=1;align=right;verticalAlign=middle;resizable=0;points=[];autosize=1;strokeColor=none;fillColor=none;fontSize=20;rotation=0;" parent="1" vertex="1">
          <mxGeometry x="555" y="1340" width="160" height="40" as="geometry" />
        </mxCell>
        <mxCell id="s-UL826C9sRYQY8fjNlG-13" value="counter_clear_n" style="text;html=1;align=right;verticalAlign=middle;resizable=0;points=[];autosize=1;strokeColor=none;fillColor=none;fontSize=20;rotation=0;" parent="1" vertex="1">
          <mxGeometry x="545" y="1380" width="170" height="40" as="geometry" />
        </mxCell>
        <mxCell id="s-UL826C9sRYQY8fjNlG-14" value="counter_out" style="text;html=1;align=right;verticalAlign=middle;resizable=0;points=[];autosize=1;strokeColor=none;fillColor=none;fontSize=20;rotation=0;" parent="1" vertex="1">
          <mxGeometry x="585" y="1460.5" width="130" height="40" as="geometry" />
        </mxCell>
        <mxCell id="s-UL826C9sRYQY8fjNlG-15" value="counter_up_downN" style="text;html=1;align=right;verticalAlign=middle;resizable=0;points=[];autosize=1;strokeColor=none;fillColor=none;fontSize=20;rotation=0;" parent="1" vertex="1">
          <mxGeometry x="515" y="1420" width="200" height="40" as="geometry" />
        </mxCell>
        <mxCell id="s-UL826C9sRYQY8fjNlG-16" value="" style="endArrow=classic;html=1;rounded=0;" parent="1" edge="1">
          <mxGeometry width="50" height="50" relative="1" as="geometry">
            <mxPoint x="220" y="1360" as="sourcePoint" />
            <mxPoint x="280" y="1359.8" as="targetPoint" />
          </mxGeometry>
        </mxCell>
        <mxCell id="s-UL826C9sRYQY8fjNlG-17" value="" style="endArrow=classic;html=1;rounded=0;" parent="1" edge="1">
          <mxGeometry width="50" height="50" relative="1" as="geometry">
            <mxPoint x="220" y="1400" as="sourcePoint" />
            <mxPoint x="280" y="1399.8" as="targetPoint" />
          </mxGeometry>
        </mxCell>
        <mxCell id="s-UL826C9sRYQY8fjNlG-18" value="" style="endArrow=classic;html=1;rounded=0;" parent="1" edge="1">
          <mxGeometry width="50" height="50" relative="1" as="geometry">
            <mxPoint x="220" y="1480.5" as="sourcePoint" />
            <mxPoint x="280" y="1480.3" as="targetPoint" />
          </mxGeometry>
        </mxCell>
        <mxCell id="s-UL826C9sRYQY8fjNlG-19" value="" style="endArrow=classic;html=1;rounded=0;" parent="1" edge="1">
          <mxGeometry width="50" height="50" relative="1" as="geometry">
            <mxPoint x="220" y="1520" as="sourcePoint" />
            <mxPoint x="280" y="1519.8" as="targetPoint" />
          </mxGeometry>
        </mxCell>
        <mxCell id="s-UL826C9sRYQY8fjNlG-20" value="" style="endArrow=classic;html=1;rounded=0;" parent="1" edge="1">
          <mxGeometry width="50" height="50" relative="1" as="geometry">
            <mxPoint x="220" y="1640.5" as="sourcePoint" />
            <mxPoint x="280" y="1640.3" as="targetPoint" />
          </mxGeometry>
        </mxCell>
        <mxCell id="s-UL826C9sRYQY8fjNlG-21" value="" style="endArrow=classic;html=1;rounded=0;" parent="1" edge="1">
          <mxGeometry width="50" height="50" relative="1" as="geometry">
            <mxPoint x="220" y="1680" as="sourcePoint" />
            <mxPoint x="280" y="1679.8" as="targetPoint" />
          </mxGeometry>
        </mxCell>
        <mxCell id="s-UL826C9sRYQY8fjNlG-22" value="" style="endArrow=classic;html=1;rounded=0;" parent="1" edge="1">
          <mxGeometry width="50" height="50" relative="1" as="geometry">
            <mxPoint x="280" y="1440.3" as="sourcePoint" />
            <mxPoint x="220" y="1440.5" as="targetPoint" />
          </mxGeometry>
        </mxCell>
        <mxCell id="s-UL826C9sRYQY8fjNlG-23" value="" style="endArrow=classic;html=1;rounded=0;" parent="1" edge="1">
          <mxGeometry width="50" height="50" relative="1" as="geometry">
            <mxPoint x="280" y="1560.3" as="sourcePoint" />
            <mxPoint x="220" y="1560.5" as="targetPoint" />
          </mxGeometry>
        </mxCell>
        <mxCell id="s-UL826C9sRYQY8fjNlG-24" value="" style="endArrow=classic;html=1;rounded=0;" parent="1" edge="1">
          <mxGeometry width="50" height="50" relative="1" as="geometry">
            <mxPoint x="280" y="1600.3" as="sourcePoint" />
            <mxPoint x="220" y="1600.5" as="targetPoint" />
          </mxGeometry>
        </mxCell>
        <mxCell id="s-UL826C9sRYQY8fjNlG-25" value="&lt;font style=&quot;font-size: 20px;&quot;&gt;16&lt;/font&gt;" style="text;html=1;align=center;verticalAlign=middle;resizable=0;points=[];autosize=1;strokeColor=none;fillColor=none;" parent="1" vertex="1">
          <mxGeometry x="220" y="1490" width="50" height="40" as="geometry" />
        </mxCell>
        <mxCell id="s-UL826C9sRYQY8fjNlG-26" value="&lt;font style=&quot;font-size: 20px;&quot;&gt;16&lt;/font&gt;" style="text;html=1;align=center;verticalAlign=middle;resizable=0;points=[];autosize=1;strokeColor=none;fillColor=none;" parent="1" vertex="1">
          <mxGeometry x="220" y="1530" width="50" height="40" as="geometry" />
        </mxCell>
        <mxCell id="s-UL826C9sRYQY8fjNlG-27" value="&lt;font style=&quot;font-size: 20px;&quot;&gt;11&lt;/font&gt;" style="text;html=1;align=center;verticalAlign=middle;resizable=0;points=[];autosize=1;strokeColor=none;fillColor=none;" parent="1" vertex="1">
          <mxGeometry x="220" y="1610" width="50" height="40" as="geometry" />
        </mxCell>
        <mxCell id="s-UL826C9sRYQY8fjNlG-28" value="" style="endArrow=classic;html=1;rounded=0;" parent="1" edge="1">
          <mxGeometry width="50" height="50" relative="1" as="geometry">
            <mxPoint x="780" y="1359.6599999999999" as="sourcePoint" />
            <mxPoint x="720" y="1359.86" as="targetPoint" />
          </mxGeometry>
        </mxCell>
        <mxCell id="s-UL826C9sRYQY8fjNlG-29" value="" style="endArrow=classic;html=1;rounded=0;" parent="1" edge="1">
          <mxGeometry width="50" height="50" relative="1" as="geometry">
            <mxPoint x="780" y="1399.6599999999999" as="sourcePoint" />
            <mxPoint x="720" y="1399.86" as="targetPoint" />
          </mxGeometry>
        </mxCell>
        <mxCell id="s-UL826C9sRYQY8fjNlG-30" value="" style="endArrow=classic;html=1;rounded=0;" parent="1" edge="1">
          <mxGeometry width="50" height="50" relative="1" as="geometry">
            <mxPoint x="780" y="1440.1599999999999" as="sourcePoint" />
            <mxPoint x="720" y="1440.36" as="targetPoint" />
          </mxGeometry>
        </mxCell>
        <mxCell id="s-UL826C9sRYQY8fjNlG-31" value="" style="endArrow=classic;html=1;rounded=0;" parent="1" edge="1">
          <mxGeometry width="50" height="50" relative="1" as="geometry">
            <mxPoint x="720" y="1480.36" as="sourcePoint" />
            <mxPoint x="780" y="1480.1599999999999" as="targetPoint" />
          </mxGeometry>
        </mxCell>
        <mxCell id="s-UL826C9sRYQY8fjNlG-32" value="&lt;font style=&quot;font-size: 20px;&quot;&gt;11&lt;/font&gt;" style="text;html=1;align=center;verticalAlign=middle;resizable=0;points=[];autosize=1;strokeColor=none;fillColor=none;" parent="1" vertex="1">
          <mxGeometry x="720" y="1450" width="50" height="40" as="geometry" />
        </mxCell>
      </root>
    </mxGraphModel>
  </diagram>
  <diagram name="RTL" id="3q2b8Bhuf7QUHomr6RTH">
    <mxGraphModel dx="3543" dy="1513" grid="1" gridSize="10" guides="1" tooltips="1" connect="1" arrows="1" fold="1" page="1" pageScale="1" pageWidth="850" pageHeight="1100" math="0" shadow="0">
      <root>
        <mxCell id="0" />
        <mxCell id="1" parent="0" />
        <mxCell id="dx4kDYZYSqJPcaJjK1-D-1" style="edgeStyle=orthogonalEdgeStyle;rounded=0;orthogonalLoop=1;jettySize=auto;html=1;exitX=1;exitY=0.25;exitDx=0;exitDy=0;fontSize=20;entryX=0;entryY=0.5;entryDx=0;entryDy=0;" parent="1" source="dx4kDYZYSqJPcaJjK1-D-3" target="dx4kDYZYSqJPcaJjK1-D-10" edge="1">
          <mxGeometry relative="1" as="geometry">
            <mxPoint x="470" y="920" as="targetPoint" />
            <Array as="points">
              <mxPoint x="420" y="980" />
            </Array>
          </mxGeometry>
        </mxCell>
        <mxCell id="dx4kDYZYSqJPcaJjK1-D-2" style="edgeStyle=orthogonalEdgeStyle;rounded=0;orthogonalLoop=1;jettySize=auto;html=1;startArrow=oval;startFill=1;strokeColor=#00FF00;fontSize=20;entryX=0;entryY=0.75;entryDx=0;entryDy=0;" parent="1" target="dx4kDYZYSqJPcaJjK1-D-3" edge="1">
          <mxGeometry relative="1" as="geometry">
            <mxPoint x="40" y="1020" as="sourcePoint" />
            <mxPoint x="146" y="1020.1300000000001" as="targetPoint" />
            <Array as="points">
              <mxPoint x="60" y="1020" />
              <mxPoint x="60" y="1020" />
            </Array>
          </mxGeometry>
        </mxCell>
        <mxCell id="dx4kDYZYSqJPcaJjK1-D-3" value="" style="rounded=0;whiteSpace=wrap;html=1;fontSize=20;" parent="1" vertex="1">
          <mxGeometry x="160" y="960" width="260" height="80" as="geometry" />
        </mxCell>
        <mxCell id="dx4kDYZYSqJPcaJjK1-D-4" value="&lt;font style=&quot;font-size: 20px;&quot;&gt;code_&lt;font style=&quot;font-size: 20px;&quot;&gt;counter: counter_2bit&lt;/font&gt;&lt;/font&gt;" style="rounded=0;whiteSpace=wrap;html=1;fontSize=20;" parent="1" vertex="1">
          <mxGeometry x="160" y="920" width="260" height="40" as="geometry" />
        </mxCell>
        <mxCell id="dx4kDYZYSqJPcaJjK1-D-5" value="&lt;div style=&quot;font-size: 20px;&quot;&gt;&lt;font style=&quot;font-size: 20px;&quot;&gt;en&lt;/font&gt;&lt;/div&gt;" style="text;html=1;align=left;verticalAlign=middle;resizable=0;points=[];autosize=1;strokeColor=none;fillColor=none;fontSize=20;" parent="1" vertex="1">
          <mxGeometry x="165" y="959.88" width="50" height="40" as="geometry" />
        </mxCell>
        <mxCell id="dx4kDYZYSqJPcaJjK1-D-6" value="" style="endArrow=classic;html=1;rounded=0;strokeColor=#00FF00;fontSize=20;entryX=0;entryY=0.25;entryDx=0;entryDy=0;" parent="1" target="dx4kDYZYSqJPcaJjK1-D-3" edge="1">
          <mxGeometry width="50" height="50" relative="1" as="geometry">
            <mxPoint x="100" y="360" as="sourcePoint" />
            <mxPoint x="140" y="950" as="targetPoint" />
            <Array as="points">
              <mxPoint x="100" y="980" />
            </Array>
          </mxGeometry>
        </mxCell>
        <mxCell id="dx4kDYZYSqJPcaJjK1-D-7" value="&lt;font style=&quot;font-size: 20px;&quot;&gt;system_enable&lt;/font&gt;" style="text;html=1;align=left;verticalAlign=middle;resizable=0;points=[];autosize=1;strokeColor=none;fillColor=none;rotation=-90;fontSize=20;" parent="1" vertex="1">
          <mxGeometry x="20" y="239" width="160" height="40" as="geometry" />
        </mxCell>
        <mxCell id="dx4kDYZYSqJPcaJjK1-D-8" value="synch&lt;font style=&quot;font-size: 20px;&quot;&gt;_strobe&lt;/font&gt;" style="text;html=1;align=right;verticalAlign=middle;resizable=0;points=[];autosize=1;strokeColor=none;fillColor=none;fontSize=20;" parent="1" vertex="1">
          <mxGeometry x="-280" y="780" width="140" height="40" as="geometry" />
        </mxCell>
        <mxCell id="dx4kDYZYSqJPcaJjK1-D-9" value="&lt;font style=&quot;font-size: 20px;&quot;&gt;enabler: decoder_2bit&lt;/font&gt;" style="rounded=0;whiteSpace=wrap;html=1;fontSize=20;" parent="1" vertex="1">
          <mxGeometry x="480" y="800" width="220" height="40" as="geometry" />
        </mxCell>
        <mxCell id="dx4kDYZYSqJPcaJjK1-D-10" value="" style="rounded=0;whiteSpace=wrap;html=1;fontSize=20;" parent="1" vertex="1">
          <mxGeometry x="480" y="840" width="220" height="280" as="geometry" />
        </mxCell>
        <mxCell id="dx4kDYZYSqJPcaJjK1-D-11" value="&lt;font style=&quot;font-size: 20px;&quot;&gt;code&lt;/font&gt;" style="text;html=1;align=left;verticalAlign=middle;resizable=0;points=[];autosize=1;strokeColor=none;fillColor=none;fontSize=20;" parent="1" vertex="1">
          <mxGeometry x="485" y="960" width="70" height="40" as="geometry" />
        </mxCell>
        <mxCell id="dx4kDYZYSqJPcaJjK1-D-12" style="edgeStyle=orthogonalEdgeStyle;rounded=0;orthogonalLoop=1;jettySize=auto;html=1;fontSize=20;exitX=1;exitY=0.25;exitDx=0;exitDy=0;" parent="1" source="dx4kDYZYSqJPcaJjK1-D-22" edge="1">
          <mxGeometry relative="1" as="geometry">
            <mxPoint x="1280" y="860" as="targetPoint" />
            <mxPoint x="1200" y="860.5" as="sourcePoint" />
            <Array as="points" />
          </mxGeometry>
        </mxCell>
        <mxCell id="dx4kDYZYSqJPcaJjK1-D-13" value="" style="endArrow=classic;html=1;rounded=0;endFill=1;fontSize=20;edgeStyle=orthogonalEdgeStyle;entryX=0;entryY=0.25;entryDx=0;entryDy=0;" parent="1" target="dx4kDYZYSqJPcaJjK1-D-22" edge="1">
          <mxGeometry width="50" height="50" relative="1" as="geometry">
            <mxPoint x="700" y="860" as="sourcePoint" />
            <mxPoint x="930" y="960" as="targetPoint" />
            <Array as="points">
              <mxPoint x="800" y="860" />
            </Array>
          </mxGeometry>
        </mxCell>
        <mxCell id="dx4kDYZYSqJPcaJjK1-D-14" value="&lt;div align=&quot;right&quot; style=&quot;font-size: 20px;&quot;&gt;&lt;font style=&quot;font-size: 20px;&quot;&gt;dec11&lt;/font&gt;&lt;/div&gt;" style="text;html=1;align=right;verticalAlign=middle;resizable=0;points=[];autosize=1;strokeColor=none;fillColor=none;fontSize=20;" parent="1" vertex="1">
          <mxGeometry x="615" y="840" width="80" height="40" as="geometry" />
        </mxCell>
        <mxCell id="dx4kDYZYSqJPcaJjK1-D-15" value="" style="endArrow=classic;html=1;rounded=0;endFill=1;entryX=0;entryY=0.25;entryDx=0;entryDy=0;fontSize=20;edgeStyle=orthogonalEdgeStyle;" parent="1" target="dx4kDYZYSqJPcaJjK1-D-126" edge="1">
          <mxGeometry width="50" height="50" relative="1" as="geometry">
            <mxPoint x="700" y="940" as="sourcePoint" />
            <mxPoint x="1100" y="1060" as="targetPoint" />
            <Array as="points">
              <mxPoint x="750" y="940" />
              <mxPoint x="750" y="940" />
            </Array>
          </mxGeometry>
        </mxCell>
        <mxCell id="dx4kDYZYSqJPcaJjK1-D-16" value="&lt;div align=&quot;right&quot; style=&quot;font-size: 20px;&quot;&gt;&lt;font style=&quot;font-size: 20px;&quot;&gt;dec10&lt;/font&gt;&lt;/div&gt;" style="text;html=1;align=right;verticalAlign=middle;resizable=0;points=[];autosize=1;strokeColor=none;fillColor=none;fontSize=20;" parent="1" vertex="1">
          <mxGeometry x="615" y="920.5" width="80" height="40" as="geometry" />
        </mxCell>
        <mxCell id="dx4kDYZYSqJPcaJjK1-D-17" value="&lt;div align=&quot;right&quot; style=&quot;font-size: 20px;&quot;&gt;&lt;font style=&quot;font-size: 20px;&quot;&gt;dec01&lt;/font&gt;&lt;/div&gt;" style="text;html=1;align=right;verticalAlign=middle;resizable=0;points=[];autosize=1;strokeColor=none;fillColor=none;fontSize=20;" parent="1" vertex="1">
          <mxGeometry x="615" y="1001" width="80" height="40" as="geometry" />
        </mxCell>
        <mxCell id="dx4kDYZYSqJPcaJjK1-D-18" value="&lt;div align=&quot;right&quot; style=&quot;font-size: 20px;&quot;&gt;&lt;font style=&quot;font-size: 20px;&quot;&gt;dec00&lt;/font&gt;&lt;/div&gt;" style="text;html=1;align=right;verticalAlign=middle;resizable=0;points=[];autosize=1;strokeColor=none;fillColor=none;fontSize=20;" parent="1" vertex="1">
          <mxGeometry x="615" y="1080" width="80" height="40" as="geometry" />
        </mxCell>
        <mxCell id="dx4kDYZYSqJPcaJjK1-D-19" style="edgeStyle=orthogonalEdgeStyle;rounded=0;orthogonalLoop=1;jettySize=auto;html=1;strokeColor=#00FF00;entryX=0;entryY=0.25;entryDx=0;entryDy=0;fontSize=20;" parent="1" target="dx4kDYZYSqJPcaJjK1-D-83" edge="1">
          <mxGeometry relative="1" as="geometry">
            <mxPoint x="880" y="360" as="sourcePoint" />
            <mxPoint x="1210" y="610" as="targetPoint" />
            <Array as="points">
              <mxPoint x="880" y="700" />
            </Array>
          </mxGeometry>
        </mxCell>
        <mxCell id="dx4kDYZYSqJPcaJjK1-D-20" style="edgeStyle=orthogonalEdgeStyle;rounded=0;orthogonalLoop=1;jettySize=auto;html=1;exitX=0.5;exitY=0;exitDx=0;exitDy=0;entryX=0;entryY=0.25;entryDx=0;entryDy=0;fontSize=20;" parent="1" source="dx4kDYZYSqJPcaJjK1-D-21" target="dx4kDYZYSqJPcaJjK1-D-40" edge="1">
          <mxGeometry relative="1" as="geometry">
            <mxPoint x="1440.5" y="980" as="targetPoint" />
            <Array as="points">
              <mxPoint x="1400" y="980" />
            </Array>
          </mxGeometry>
        </mxCell>
        <mxCell id="dx4kDYZYSqJPcaJjK1-D-21" value="" style="shape=trapezoid;perimeter=trapezoidPerimeter;whiteSpace=wrap;html=1;fixedSize=1;direction=south;horizontal=0;align=center;verticalAlign=bottom;fontSize=20;" parent="1" vertex="1">
          <mxGeometry x="1280" y="830" width="60" height="300" as="geometry" />
        </mxCell>
        <mxCell id="dx4kDYZYSqJPcaJjK1-D-22" value="&lt;font style=&quot;font-size: 20px;&quot;&gt;din11: register&lt;br style=&quot;font-size: 20px;&quot;&gt;&lt;/font&gt;" style="rounded=0;whiteSpace=wrap;html=1;fontSize=20;" parent="1" vertex="1">
          <mxGeometry x="920" y="850.5" width="240" height="40" as="geometry" />
        </mxCell>
        <mxCell id="dx4kDYZYSqJPcaJjK1-D-23" value="11" style="text;html=1;align=left;verticalAlign=middle;resizable=0;points=[];autosize=1;strokeColor=none;fillColor=none;fontSize=20;" parent="1" vertex="1">
          <mxGeometry x="1285" y="840" width="50" height="40" as="geometry" />
        </mxCell>
        <mxCell id="dx4kDYZYSqJPcaJjK1-D-24" value="10" style="text;html=1;align=left;verticalAlign=middle;resizable=0;points=[];autosize=1;strokeColor=none;fillColor=none;fontSize=20;" parent="1" vertex="1">
          <mxGeometry x="1285" y="920.5" width="50" height="40" as="geometry" />
        </mxCell>
        <mxCell id="dx4kDYZYSqJPcaJjK1-D-25" value="01" style="text;html=1;align=left;verticalAlign=middle;resizable=0;points=[];autosize=1;strokeColor=none;fillColor=none;fontSize=20;" parent="1" vertex="1">
          <mxGeometry x="1285" y="1001" width="50" height="40" as="geometry" />
        </mxCell>
        <mxCell id="dx4kDYZYSqJPcaJjK1-D-26" value="00" style="text;html=1;align=left;verticalAlign=middle;resizable=0;points=[];autosize=1;strokeColor=none;fillColor=none;fontSize=20;" parent="1" vertex="1">
          <mxGeometry x="1285" y="1081" width="50" height="40" as="geometry" />
        </mxCell>
        <mxCell id="dx4kDYZYSqJPcaJjK1-D-27" style="edgeStyle=orthogonalEdgeStyle;rounded=0;orthogonalLoop=1;jettySize=auto;html=1;strokeColor=default;startArrow=none;startFill=0;fontSize=20;entryX=0;entryY=0.75;entryDx=0;entryDy=0;" parent="1" target="dx4kDYZYSqJPcaJjK1-D-22" edge="1">
          <mxGeometry relative="1" as="geometry">
            <mxPoint x="920" y="1010" as="targetPoint" />
            <mxPoint x="-120" y="1360" as="sourcePoint" />
            <Array as="points">
              <mxPoint x="-120" y="1360" />
              <mxPoint x="880" y="1360" />
              <mxPoint x="880" y="880" />
            </Array>
          </mxGeometry>
        </mxCell>
        <mxCell id="dx4kDYZYSqJPcaJjK1-D-28" value="synch_&lt;font style=&quot;font-size: 20px;&quot;&gt;din&lt;/font&gt;" style="text;html=1;align=right;verticalAlign=middle;resizable=0;points=[];autosize=1;strokeColor=none;fillColor=none;fontSize=20;" parent="1" vertex="1">
          <mxGeometry x="-250" y="1340" width="110" height="40" as="geometry" />
        </mxCell>
        <mxCell id="dx4kDYZYSqJPcaJjK1-D-29" style="edgeStyle=orthogonalEdgeStyle;rounded=0;orthogonalLoop=1;jettySize=auto;html=1;strokeColor=#FF0000;exitX=1;exitY=0.25;exitDx=0;exitDy=0;fontSize=20;" parent="1" source="dx4kDYZYSqJPcaJjK1-D-32" edge="1">
          <mxGeometry relative="1" as="geometry">
            <mxPoint x="520" y="1520" as="targetPoint" />
            <mxPoint x="500" y="1510" as="sourcePoint" />
          </mxGeometry>
        </mxCell>
        <mxCell id="dx4kDYZYSqJPcaJjK1-D-30" style="edgeStyle=orthogonalEdgeStyle;rounded=0;orthogonalLoop=1;jettySize=auto;html=1;entryX=0;entryY=0.25;entryDx=0;entryDy=0;startArrow=oval;startFill=1;strokeColor=#00FF00;fontSize=20;" parent="1" target="dx4kDYZYSqJPcaJjK1-D-32" edge="1">
          <mxGeometry relative="1" as="geometry">
            <mxPoint x="100" y="980" as="sourcePoint" />
            <Array as="points">
              <mxPoint x="100" y="1260" />
            </Array>
          </mxGeometry>
        </mxCell>
        <mxCell id="dx4kDYZYSqJPcaJjK1-D-31" style="edgeStyle=orthogonalEdgeStyle;rounded=0;orthogonalLoop=1;jettySize=auto;html=1;entryX=0;entryY=0.75;entryDx=0;entryDy=0;fontColor=#00FF00;strokeColor=#00FF00;fontSize=20;" parent="1" target="dx4kDYZYSqJPcaJjK1-D-32" edge="1">
          <mxGeometry relative="1" as="geometry">
            <mxPoint x="40" y="360" as="sourcePoint" />
            <Array as="points">
              <mxPoint x="40" y="1300" />
            </Array>
          </mxGeometry>
        </mxCell>
        <mxCell id="dx4kDYZYSqJPcaJjK1-D-32" value="" style="rounded=0;whiteSpace=wrap;html=1;fontSize=20;" parent="1" vertex="1">
          <mxGeometry x="160" y="1240" width="260" height="80" as="geometry" />
        </mxCell>
        <mxCell id="dx4kDYZYSqJPcaJjK1-D-33" value="&lt;font style=&quot;font-size: 20px;&quot;&gt;synchronizer: sr_flipflop&lt;/font&gt;" style="rounded=0;whiteSpace=wrap;html=1;fontSize=20;" parent="1" vertex="1">
          <mxGeometry x="160" y="1200" width="260" height="40" as="geometry" />
        </mxCell>
        <mxCell id="dx4kDYZYSqJPcaJjK1-D-34" value="&lt;font style=&quot;font-size: 20px;&quot;&gt;set&lt;/font&gt;" style="text;html=1;align=left;verticalAlign=middle;resizable=0;points=[];autosize=1;strokeColor=none;fillColor=none;fontSize=20;" parent="1" vertex="1">
          <mxGeometry x="165" y="1240" width="50" height="40" as="geometry" />
        </mxCell>
        <mxCell id="dx4kDYZYSqJPcaJjK1-D-35" value="&lt;font style=&quot;font-size: 20px;&quot;&gt;dout&lt;/font&gt;" style="text;html=1;align=right;verticalAlign=middle;resizable=0;points=[];autosize=1;strokeColor=none;fillColor=none;fontSize=20;" parent="1" vertex="1">
          <mxGeometry x="355" y="1240" width="60" height="40" as="geometry" />
        </mxCell>
        <mxCell id="dx4kDYZYSqJPcaJjK1-D-36" value="&lt;font style=&quot;font-size: 20px;&quot;&gt;data_counter_enable&lt;/font&gt;" style="text;html=1;align=left;verticalAlign=middle;resizable=0;points=[];autosize=1;strokeColor=none;fillColor=none;rotation=-90;fontSize=20;" parent="1" vertex="1">
          <mxGeometry x="775" y="215" width="210" height="40" as="geometry" />
        </mxCell>
        <mxCell id="dx4kDYZYSqJPcaJjK1-D-37" value="&lt;font style=&quot;font-size: 20px;&quot;&gt;start_sampling&lt;/font&gt;" style="text;html=1;align=left;verticalAlign=middle;resizable=0;points=[];autosize=1;strokeColor=none;fillColor=none;rotation=90;fontSize=20;" parent="1" vertex="1">
          <mxGeometry x="445" y="1594" width="150" height="40" as="geometry" />
        </mxCell>
        <mxCell id="dx4kDYZYSqJPcaJjK1-D-38" style="edgeStyle=orthogonalEdgeStyle;rounded=0;orthogonalLoop=1;jettySize=auto;html=1;strokeColor=#00FF00;fontSize=20;" parent="1" edge="1">
          <mxGeometry relative="1" as="geometry">
            <mxPoint x="1480" y="380" as="sourcePoint" />
            <mxPoint x="1480" y="970" as="targetPoint" />
            <Array as="points">
              <mxPoint x="1480" y="380" />
              <mxPoint x="1480" y="880" />
              <mxPoint x="1560" y="880" />
            </Array>
          </mxGeometry>
        </mxCell>
        <mxCell id="dx4kDYZYSqJPcaJjK1-D-39" style="edgeStyle=orthogonalEdgeStyle;rounded=0;orthogonalLoop=1;jettySize=auto;html=1;exitX=1;exitY=0.25;exitDx=0;exitDy=0;entryX=0;entryY=0.25;entryDx=0;entryDy=0;" parent="1" source="dx4kDYZYSqJPcaJjK1-D-40" target="dx4kDYZYSqJPcaJjK1-D-92" edge="1">
          <mxGeometry relative="1" as="geometry" />
        </mxCell>
        <mxCell id="dx4kDYZYSqJPcaJjK1-D-40" value="&lt;font style=&quot;font-size: 20px;&quot;&gt;outreg: register&lt;br style=&quot;font-size: 20px;&quot;&gt;&lt;/font&gt;" style="rounded=0;whiteSpace=wrap;html=1;fontSize=20;" parent="1" vertex="1">
          <mxGeometry x="1420" y="970" width="180" height="40" as="geometry" />
        </mxCell>
        <mxCell id="dx4kDYZYSqJPcaJjK1-D-41" value="&lt;font style=&quot;font-size: 20px;&quot;&gt;outreg_enable&lt;/font&gt;" style="text;html=1;align=left;verticalAlign=middle;resizable=0;points=[];autosize=1;strokeColor=none;fillColor=none;rotation=-90;fontSize=20;" parent="1" vertex="1">
          <mxGeometry x="1404.5" y="265" width="150" height="40" as="geometry" />
        </mxCell>
        <mxCell id="dx4kDYZYSqJPcaJjK1-D-42" value="synch_&lt;font style=&quot;font-size: 20px;&quot;&gt;dout&lt;/font&gt;" style="text;html=1;align=left;verticalAlign=middle;resizable=0;points=[];autosize=1;strokeColor=none;fillColor=none;fontSize=20;" parent="1" vertex="1">
          <mxGeometry x="1939.5" y="960" width="130" height="40" as="geometry" />
        </mxCell>
        <mxCell id="dx4kDYZYSqJPcaJjK1-D-43" value="&lt;font style=&quot;font-size: 20px;&quot;&gt;synch_validout&lt;/font&gt;" style="text;html=1;align=left;verticalAlign=middle;resizable=0;points=[];autosize=1;strokeColor=none;fillColor=none;fontSize=20;" parent="1" vertex="1">
          <mxGeometry x="1938.5" y="520" width="150" height="40" as="geometry" />
        </mxCell>
        <mxCell id="dx4kDYZYSqJPcaJjK1-D-44" value="&lt;font style=&quot;font-size: 20px;&quot;&gt;validout&lt;/font&gt;" style="text;html=1;align=left;verticalAlign=middle;resizable=0;points=[];autosize=1;strokeColor=none;fillColor=none;rotation=-90;fontSize=20;" parent="1" vertex="1">
          <mxGeometry x="1554.5" y="295" width="90" height="40" as="geometry" />
        </mxCell>
        <mxCell id="dx4kDYZYSqJPcaJjK1-D-45" style="edgeStyle=orthogonalEdgeStyle;rounded=0;orthogonalLoop=1;jettySize=auto;html=1;entryX=0;entryY=0.25;entryDx=0;entryDy=0;strokeColor=#00FF00;startArrow=none;startFill=0;fontSize=20;" parent="1" target="dx4kDYZYSqJPcaJjK1-D-48" edge="1">
          <mxGeometry relative="1" as="geometry">
            <mxPoint x="220" y="360" as="sourcePoint" />
            <Array as="points">
              <mxPoint x="220" y="650" />
            </Array>
          </mxGeometry>
        </mxCell>
        <mxCell id="dx4kDYZYSqJPcaJjK1-D-46" style="edgeStyle=orthogonalEdgeStyle;rounded=0;orthogonalLoop=1;jettySize=auto;html=1;entryX=0;entryY=0.75;entryDx=0;entryDy=0;fontSize=20;" parent="1" target="dx4kDYZYSqJPcaJjK1-D-48" edge="1">
          <mxGeometry relative="1" as="geometry">
            <mxPoint x="560" y="679.8" as="targetPoint" />
            <mxPoint x="-120" y="670" as="sourcePoint" />
          </mxGeometry>
        </mxCell>
        <mxCell id="dx4kDYZYSqJPcaJjK1-D-47" style="edgeStyle=orthogonalEdgeStyle;rounded=0;orthogonalLoop=1;jettySize=auto;html=1;exitX=1;exitY=0.25;exitDx=0;exitDy=0;fontSize=20;" parent="1" source="dx4kDYZYSqJPcaJjK1-D-48" edge="1">
          <mxGeometry relative="1" as="geometry">
            <Array as="points">
              <mxPoint x="840" y="580" />
            </Array>
            <mxPoint x="920" y="580" as="targetPoint" />
          </mxGeometry>
        </mxCell>
        <mxCell id="dx4kDYZYSqJPcaJjK1-D-48" value="&lt;font style=&quot;font-size: 20px;&quot;&gt;burstlen: register&lt;br style=&quot;font-size: 20px;&quot;&gt;&lt;/font&gt;" style="rounded=0;whiteSpace=wrap;html=1;fontSize=20;" parent="1" vertex="1">
          <mxGeometry x="480" y="640" width="320" height="40" as="geometry" />
        </mxCell>
        <mxCell id="dx4kDYZYSqJPcaJjK1-D-49" style="edgeStyle=orthogonalEdgeStyle;rounded=0;orthogonalLoop=1;jettySize=auto;html=1;strokeColor=default;exitX=1;exitY=0.5;exitDx=0;exitDy=0;exitPerimeter=0;fontSize=20;" parent="1" source="dx4kDYZYSqJPcaJjK1-D-114" edge="1">
          <mxGeometry relative="1" as="geometry">
            <mxPoint x="480" y="450" as="sourcePoint" />
            <Array as="points">
              <mxPoint x="480" y="440" />
              <mxPoint x="480" y="440" />
            </Array>
            <mxPoint x="480" y="440" as="targetPoint" />
          </mxGeometry>
        </mxCell>
        <mxCell id="dx4kDYZYSqJPcaJjK1-D-50" style="edgeStyle=orthogonalEdgeStyle;rounded=0;orthogonalLoop=1;jettySize=auto;html=1;fontSize=20;" parent="1" edge="1">
          <mxGeometry relative="1" as="geometry">
            <Array as="points">
              <mxPoint x="840" y="440" />
              <mxPoint x="840" y="540" />
            </Array>
            <mxPoint x="920" y="540" as="targetPoint" />
            <mxPoint x="800" y="440" as="sourcePoint" />
          </mxGeometry>
        </mxCell>
        <mxCell id="dx4kDYZYSqJPcaJjK1-D-51" value="" style="rounded=0;whiteSpace=wrap;html=1;fontSize=20;" parent="1" vertex="1">
          <mxGeometry x="480" y="420" width="320" height="160" as="geometry" />
        </mxCell>
        <mxCell id="dx4kDYZYSqJPcaJjK1-D-52" value="&lt;font style=&quot;font-size: 20px;&quot;&gt;burstlen_counter: counter&lt;/font&gt;_11bit" style="rounded=0;whiteSpace=wrap;html=1;fontSize=20;" parent="1" vertex="1">
          <mxGeometry x="480" y="380" width="320" height="40" as="geometry" />
        </mxCell>
        <mxCell id="dx4kDYZYSqJPcaJjK1-D-53" value="&lt;div style=&quot;font-size: 20px;&quot;&gt;&lt;font style=&quot;font-size: 20px;&quot;&gt;en&lt;/font&gt;&lt;/div&gt;" style="text;html=1;align=left;verticalAlign=middle;resizable=0;points=[];autosize=1;strokeColor=none;fillColor=none;fontSize=20;" parent="1" vertex="1">
          <mxGeometry x="485" y="420" width="50" height="40" as="geometry" />
        </mxCell>
        <mxCell id="dx4kDYZYSqJPcaJjK1-D-54" value="" style="triangle;whiteSpace=wrap;html=1;direction=west;fontSize=20;" parent="1" vertex="1">
          <mxGeometry x="780" y="560" width="20" height="20" as="geometry" />
        </mxCell>
        <mxCell id="dx4kDYZYSqJPcaJjK1-D-55" value="&lt;font style=&quot;font-size: 20px;&quot;&gt;dout&lt;/font&gt;" style="text;html=1;align=right;verticalAlign=middle;resizable=0;points=[];autosize=1;strokeColor=none;fillColor=none;fontSize=20;" parent="1" vertex="1">
          <mxGeometry x="735" y="420" width="60" height="40" as="geometry" />
        </mxCell>
        <mxCell id="dx4kDYZYSqJPcaJjK1-D-56" value="&lt;font style=&quot;font-size: 20px;&quot;&gt;burstlen_counter_enable&lt;/font&gt;" style="text;html=1;align=left;verticalAlign=middle;resizable=0;points=[];autosize=1;strokeColor=none;fillColor=none;rotation=-90;fontSize=20;" parent="1" vertex="1">
          <mxGeometry x="160" y="199" width="240" height="40" as="geometry" />
        </mxCell>
        <mxCell id="dx4kDYZYSqJPcaJjK1-D-57" value="&lt;font style=&quot;font-size: 20px;&quot;&gt;burstcount&lt;/font&gt;" style="text;html=1;align=right;verticalAlign=middle;resizable=0;points=[];autosize=1;strokeColor=none;fillColor=none;fontSize=20;" parent="1" vertex="1">
          <mxGeometry x="-260" y="649.25" width="120" height="40" as="geometry" />
        </mxCell>
        <mxCell id="dx4kDYZYSqJPcaJjK1-D-58" style="edgeStyle=orthogonalEdgeStyle;rounded=0;orthogonalLoop=1;jettySize=auto;html=1;exitX=1;exitY=0.5;exitDx=0;exitDy=0;strokeColor=#FF0000;fontSize=20;" parent="1" source="dx4kDYZYSqJPcaJjK1-D-59" edge="1">
          <mxGeometry relative="1" as="geometry">
            <mxPoint x="1380" y="1530" as="targetPoint" />
            <Array as="points">
              <mxPoint x="1380" y="560" />
            </Array>
          </mxGeometry>
        </mxCell>
        <mxCell id="dx4kDYZYSqJPcaJjK1-D-59" value="" style="rounded=0;whiteSpace=wrap;html=1;fontSize=20;" parent="1" vertex="1">
          <mxGeometry x="920" y="520" width="320" height="80" as="geometry" />
        </mxCell>
        <mxCell id="dx4kDYZYSqJPcaJjK1-D-60" value="&lt;font style=&quot;font-size: 20px;&quot;&gt;burstlen_cmp: &lt;/font&gt;&lt;font style=&quot;font-size: 20px;&quot;&gt;comparator_11bit&lt;/font&gt;" style="rounded=0;whiteSpace=wrap;html=1;fontSize=20;" parent="1" vertex="1">
          <mxGeometry x="920" y="480" width="320" height="40" as="geometry" />
        </mxCell>
        <mxCell id="dx4kDYZYSqJPcaJjK1-D-61" value="&lt;font style=&quot;font-size: 20px;&quot;&gt;cmp_in_0&lt;/font&gt;" style="text;html=1;align=left;verticalAlign=middle;resizable=0;points=[];autosize=1;strokeColor=none;fillColor=none;fontSize=20;" parent="1" vertex="1">
          <mxGeometry x="924" y="520" width="110" height="40" as="geometry" />
        </mxCell>
        <mxCell id="dx4kDYZYSqJPcaJjK1-D-62" value="&lt;font style=&quot;font-size: 20px;&quot;&gt;cmp_in_1&lt;/font&gt;" style="text;html=1;align=left;verticalAlign=middle;resizable=0;points=[];autosize=1;strokeColor=none;fillColor=none;fontSize=20;" parent="1" vertex="1">
          <mxGeometry x="924" y="560" width="110" height="40" as="geometry" />
        </mxCell>
        <mxCell id="dx4kDYZYSqJPcaJjK1-D-63" value="&lt;font style=&quot;font-size: 20px;&quot;&gt;burst_end&lt;/font&gt;" style="text;html=1;align=left;verticalAlign=middle;resizable=0;points=[];autosize=1;strokeColor=none;fillColor=none;rotation=90;fontSize=20;" parent="1" vertex="1">
          <mxGeometry x="1324.5" y="1585" width="110" height="40" as="geometry" />
        </mxCell>
        <mxCell id="dx4kDYZYSqJPcaJjK1-D-64" value="&lt;font style=&quot;font-size: 20px;&quot;&gt;equal&lt;/font&gt;" style="text;html=1;align=right;verticalAlign=middle;resizable=0;points=[];autosize=1;strokeColor=none;fillColor=none;fontSize=20;" parent="1" vertex="1">
          <mxGeometry x="1164" y="540" width="70" height="40" as="geometry" />
        </mxCell>
        <mxCell id="dx4kDYZYSqJPcaJjK1-D-65" value="" style="endArrow=classic;html=1;rounded=0;fontSize=20;" parent="1" edge="1">
          <mxGeometry width="50" height="50" relative="1" as="geometry">
            <mxPoint x="-120" y="1440" as="sourcePoint" />
            <mxPoint y="1440" as="targetPoint" />
          </mxGeometry>
        </mxCell>
        <mxCell id="dx4kDYZYSqJPcaJjK1-D-66" value="&lt;font style=&quot;font-size: 20px;&quot;&gt;enable&lt;/font&gt;" style="text;html=1;align=left;verticalAlign=middle;resizable=0;points=[];autosize=1;strokeColor=none;fillColor=none;rotation=90;fontSize=20;" parent="1" vertex="1">
          <mxGeometry x="-34" y="1554" width="80" height="40" as="geometry" />
        </mxCell>
        <mxCell id="dx4kDYZYSqJPcaJjK1-D-67" value="&lt;font style=&quot;font-size: 20px;&quot;&gt;synch_enable&lt;/font&gt;" style="text;html=1;align=right;verticalAlign=middle;resizable=0;points=[];autosize=1;strokeColor=none;fillColor=none;fontSize=20;" parent="1" vertex="1">
          <mxGeometry x="-290" y="1420" width="150" height="40" as="geometry" />
        </mxCell>
        <mxCell id="dx4kDYZYSqJPcaJjK1-D-68" value="&lt;div align=&quot;left&quot; style=&quot;font-size: 20px;&quot;&gt;&lt;font style=&quot;font-size: 20px;&quot;&gt;clear_n&lt;/font&gt;&lt;/div&gt;" style="text;html=1;align=left;verticalAlign=middle;resizable=0;points=[];autosize=1;strokeColor=none;fillColor=none;fontSize=20;" parent="1" vertex="1">
          <mxGeometry x="165" y="999.1300000000001" width="90" height="40" as="geometry" />
        </mxCell>
        <mxCell id="dx4kDYZYSqJPcaJjK1-D-69" value="&lt;font style=&quot;font-size: 20px;&quot;&gt;clear_n&lt;/font&gt;" style="text;html=1;align=left;verticalAlign=middle;resizable=0;points=[];autosize=1;strokeColor=none;fillColor=none;fontSize=20;" parent="1" vertex="1">
          <mxGeometry x="165" y="1280" width="90" height="40" as="geometry" />
        </mxCell>
        <mxCell id="dx4kDYZYSqJPcaJjK1-D-70" value="&lt;font style=&quot;font-size: 20px;&quot;&gt;system_clear_n&lt;/font&gt;" style="text;html=1;align=left;verticalAlign=middle;resizable=0;points=[];autosize=1;strokeColor=none;fillColor=none;rotation=-90;fontSize=20;" parent="1" vertex="1">
          <mxGeometry x="-40" y="239" width="160" height="40" as="geometry" />
        </mxCell>
        <mxCell id="dx4kDYZYSqJPcaJjK1-D-71" value="&lt;font style=&quot;font-size: 20px;&quot;&gt;dout&lt;/font&gt;" style="text;html=1;align=right;verticalAlign=middle;resizable=0;points=[];autosize=1;strokeColor=none;fillColor=none;fontSize=20;" parent="1" vertex="1">
          <mxGeometry x="355" y="959.88" width="60" height="40" as="geometry" />
        </mxCell>
        <mxCell id="dx4kDYZYSqJPcaJjK1-D-72" style="edgeStyle=orthogonalEdgeStyle;rounded=0;orthogonalLoop=1;jettySize=auto;html=1;strokeColor=default;startArrow=none;startFill=0;exitX=1;exitY=0.5;exitDx=0;exitDy=0;exitPerimeter=0;fontSize=20;" parent="1" source="dx4kDYZYSqJPcaJjK1-D-102" edge="1">
          <mxGeometry relative="1" as="geometry">
            <mxPoint x="239.99999999999977" y="560" as="sourcePoint" />
            <Array as="points">
              <mxPoint x="480" y="560" />
            </Array>
            <mxPoint x="480" y="560" as="targetPoint" />
          </mxGeometry>
        </mxCell>
        <mxCell id="dx4kDYZYSqJPcaJjK1-D-73" value="&lt;font style=&quot;font-size: 20px;&quot;&gt;clear_n&lt;/font&gt;" style="text;html=1;align=left;verticalAlign=middle;resizable=0;points=[];autosize=1;strokeColor=none;fillColor=none;fontSize=20;" parent="1" vertex="1">
          <mxGeometry x="485" y="540" width="90" height="40" as="geometry" />
        </mxCell>
        <mxCell id="dx4kDYZYSqJPcaJjK1-D-74" value="" style="endArrow=classic;html=1;rounded=0;strokeColor=#FF0000;fontSize=20;" parent="1" edge="1">
          <mxGeometry width="50" height="50" relative="1" as="geometry">
            <mxPoint y="1440" as="sourcePoint" />
            <mxPoint y="1520" as="targetPoint" />
          </mxGeometry>
        </mxCell>
        <mxCell id="dx4kDYZYSqJPcaJjK1-D-75" value="&lt;font style=&quot;font-size: 20px;&quot;&gt;synch_busy&lt;/font&gt;" style="text;html=1;align=left;verticalAlign=middle;resizable=0;points=[];autosize=1;strokeColor=none;fillColor=none;fontSize=20;" parent="1" vertex="1">
          <mxGeometry x="1938.5" y="590" width="130" height="40" as="geometry" />
        </mxCell>
        <mxCell id="dx4kDYZYSqJPcaJjK1-D-76" value="&lt;font style=&quot;font-size: 20px;&quot;&gt;busy&lt;/font&gt;" style="text;html=1;align=left;verticalAlign=middle;resizable=0;points=[];autosize=1;strokeColor=none;fillColor=none;rotation=-90;fontSize=20;" parent="1" vertex="1">
          <mxGeometry x="1523.5" y="305" width="70" height="40" as="geometry" />
        </mxCell>
        <mxCell id="dx4kDYZYSqJPcaJjK1-D-77" value="&lt;font style=&quot;font-size: 20px;&quot;&gt;burstlen__enable&lt;/font&gt;" style="text;html=1;align=left;verticalAlign=middle;resizable=0;points=[];autosize=1;strokeColor=none;fillColor=none;rotation=-90;fontSize=20;" parent="1" vertex="1">
          <mxGeometry x="130" y="230" width="180" height="40" as="geometry" />
        </mxCell>
        <mxCell id="dx4kDYZYSqJPcaJjK1-D-78" value="" style="endArrow=classic;html=1;rounded=0;fontSize=20;" parent="1" edge="1">
          <mxGeometry width="50" height="50" relative="1" as="geometry">
            <mxPoint x="-120" y="1400" as="sourcePoint" />
            <mxPoint x="40" y="1400" as="targetPoint" />
          </mxGeometry>
        </mxCell>
        <mxCell id="dx4kDYZYSqJPcaJjK1-D-79" value="&lt;font style=&quot;font-size: 20px;&quot;&gt;clear_n&lt;/font&gt;" style="text;html=1;align=left;verticalAlign=middle;resizable=0;points=[];autosize=1;strokeColor=none;fillColor=none;rotation=90;fontSize=20;" parent="1" vertex="1">
          <mxGeometry x="4" y="1554" width="90" height="40" as="geometry" />
        </mxCell>
        <mxCell id="dx4kDYZYSqJPcaJjK1-D-80" value="" style="endArrow=classic;html=1;rounded=0;strokeColor=#FF0000;fontSize=20;" parent="1" edge="1">
          <mxGeometry width="50" height="50" relative="1" as="geometry">
            <mxPoint x="40" y="1400" as="sourcePoint" />
            <mxPoint x="40" y="1520" as="targetPoint" />
          </mxGeometry>
        </mxCell>
        <mxCell id="dx4kDYZYSqJPcaJjK1-D-81" value="&lt;font style=&quot;font-size: 20px;&quot;&gt;synch_clear_n&lt;/font&gt;" style="text;html=1;align=right;verticalAlign=middle;resizable=0;points=[];autosize=1;strokeColor=none;fillColor=none;fontSize=20;" parent="1" vertex="1">
          <mxGeometry x="-290" y="1380" width="150" height="40" as="geometry" />
        </mxCell>
        <mxCell id="dx4kDYZYSqJPcaJjK1-D-82" style="edgeStyle=orthogonalEdgeStyle;rounded=0;orthogonalLoop=1;jettySize=auto;html=1;exitX=1;exitY=0.5;exitDx=0;exitDy=0;entryX=0;entryY=0.5;entryDx=0;entryDy=0;fontSize=20;" parent="1" source="dx4kDYZYSqJPcaJjK1-D-83" target="dx4kDYZYSqJPcaJjK1-D-21" edge="1">
          <mxGeometry relative="1" as="geometry" />
        </mxCell>
        <mxCell id="dx4kDYZYSqJPcaJjK1-D-83" value="" style="rounded=0;whiteSpace=wrap;html=1;fontSize=20;" parent="1" vertex="1">
          <mxGeometry x="920" y="680" width="320" height="80" as="geometry" />
        </mxCell>
        <mxCell id="dx4kDYZYSqJPcaJjK1-D-84" value="&lt;font style=&quot;font-size: 20px;&quot;&gt;data_&lt;font style=&quot;font-size: 20px;&quot;&gt;counter: counter_2bit&lt;/font&gt;&lt;/font&gt;" style="rounded=0;whiteSpace=wrap;html=1;fontSize=20;" parent="1" vertex="1">
          <mxGeometry x="920" y="640" width="320" height="40" as="geometry" />
        </mxCell>
        <mxCell id="dx4kDYZYSqJPcaJjK1-D-85" value="&lt;div style=&quot;font-size: 20px;&quot;&gt;&lt;font style=&quot;font-size: 20px;&quot;&gt;en&lt;/font&gt;&lt;/div&gt;" style="text;html=1;align=left;verticalAlign=middle;resizable=0;points=[];autosize=1;strokeColor=none;fillColor=none;fontSize=20;" parent="1" vertex="1">
          <mxGeometry x="924" y="679.5" width="50" height="40" as="geometry" />
        </mxCell>
        <mxCell id="dx4kDYZYSqJPcaJjK1-D-86" value="" style="triangle;whiteSpace=wrap;html=1;direction=west;fontSize=20;" parent="1" vertex="1">
          <mxGeometry x="1220" y="740" width="20" height="20" as="geometry" />
        </mxCell>
        <mxCell id="dx4kDYZYSqJPcaJjK1-D-87" value="&lt;div align=&quot;left&quot; style=&quot;font-size: 20px;&quot;&gt;&lt;font style=&quot;font-size: 20px;&quot;&gt;clear_n&lt;/font&gt;&lt;/div&gt;" style="text;html=1;align=left;verticalAlign=middle;resizable=0;points=[];autosize=1;strokeColor=none;fillColor=none;fontSize=20;" parent="1" vertex="1">
          <mxGeometry x="924" y="718.75" width="90" height="40" as="geometry" />
        </mxCell>
        <mxCell id="dx4kDYZYSqJPcaJjK1-D-88" value="&lt;font style=&quot;font-size: 20px;&quot;&gt;dout&lt;/font&gt;" style="text;html=1;align=right;verticalAlign=middle;resizable=0;points=[];autosize=1;strokeColor=none;fillColor=none;fontSize=20;" parent="1" vertex="1">
          <mxGeometry x="1174" y="700" width="60" height="40" as="geometry" />
        </mxCell>
        <mxCell id="dx4kDYZYSqJPcaJjK1-D-89" style="edgeStyle=orthogonalEdgeStyle;rounded=0;orthogonalLoop=1;jettySize=auto;html=1;entryX=0;entryY=0.75;entryDx=0;entryDy=0;strokeColor=#00FF00;startArrow=oval;startFill=1;fontSize=20;" parent="1" target="dx4kDYZYSqJPcaJjK1-D-83" edge="1">
          <mxGeometry relative="1" as="geometry">
            <mxPoint x="40" y="740" as="sourcePoint" />
            <Array as="points">
              <mxPoint x="280" y="740" />
              <mxPoint x="280" y="740" />
            </Array>
            <mxPoint x="520" y="460" as="targetPoint" />
          </mxGeometry>
        </mxCell>
        <mxCell id="dx4kDYZYSqJPcaJjK1-D-90" style="edgeStyle=orthogonalEdgeStyle;rounded=0;orthogonalLoop=1;jettySize=auto;html=1;strokeColor=#00FF00;fontSize=20;" parent="1" edge="1">
          <mxGeometry relative="1" as="geometry">
            <mxPoint x="1520" y="380" as="sourcePoint" />
            <Array as="points">
              <mxPoint x="1520" y="840" />
              <mxPoint x="1700" y="840" />
            </Array>
            <mxPoint x="1700" y="970" as="targetPoint" />
          </mxGeometry>
        </mxCell>
        <mxCell id="dx4kDYZYSqJPcaJjK1-D-91" style="edgeStyle=orthogonalEdgeStyle;rounded=0;orthogonalLoop=1;jettySize=auto;html=1;exitX=1;exitY=0.25;exitDx=0;exitDy=0;" parent="1" source="dx4kDYZYSqJPcaJjK1-D-92" edge="1">
          <mxGeometry relative="1" as="geometry">
            <mxPoint x="1920" y="980.3333333333335" as="targetPoint" />
          </mxGeometry>
        </mxCell>
        <mxCell id="dx4kDYZYSqJPcaJjK1-D-92" value="&lt;font style=&quot;font-size: 20px;&quot;&gt;outpipe: register&lt;br style=&quot;font-size: 20px;&quot;&gt;&lt;/font&gt;" style="rounded=0;whiteSpace=wrap;html=1;fontSize=20;" parent="1" vertex="1">
          <mxGeometry x="1640" y="970" width="220" height="40" as="geometry" />
        </mxCell>
        <mxCell id="dx4kDYZYSqJPcaJjK1-D-93" style="edgeStyle=orthogonalEdgeStyle;rounded=0;orthogonalLoop=1;jettySize=auto;html=1;entryX=0;entryY=0.75;entryDx=0;entryDy=0;strokeColor=#00FF00;fontSize=20;" parent="1" target="dx4kDYZYSqJPcaJjK1-D-145" edge="1">
          <mxGeometry relative="1" as="geometry">
            <mxPoint x="1560" y="380" as="sourcePoint" />
            <Array as="points">
              <mxPoint x="1560" y="630" />
            </Array>
            <mxPoint x="1690" y="630" as="targetPoint" />
          </mxGeometry>
        </mxCell>
        <mxCell id="dx4kDYZYSqJPcaJjK1-D-94" value="&lt;font style=&quot;font-size: 20px;&quot;&gt;outpipe_enable&lt;/font&gt;" style="text;html=1;align=left;verticalAlign=middle;resizable=0;points=[];autosize=1;strokeColor=none;fillColor=none;rotation=-90;fontSize=20;" parent="1" vertex="1">
          <mxGeometry x="1439.5" y="260" width="160" height="40" as="geometry" />
        </mxCell>
        <mxCell id="dx4kDYZYSqJPcaJjK1-D-95" style="edgeStyle=orthogonalEdgeStyle;rounded=0;orthogonalLoop=1;jettySize=auto;html=1;strokeColor=#00FF00;fontSize=20;entryX=0;entryY=0.75;entryDx=0;entryDy=0;" parent="1" target="dx4kDYZYSqJPcaJjK1-D-98" edge="1">
          <mxGeometry relative="1" as="geometry">
            <mxPoint x="1600" y="380" as="sourcePoint" />
            <Array as="points">
              <mxPoint x="1600" y="560" />
            </Array>
            <mxPoint x="1640" y="560" as="targetPoint" />
          </mxGeometry>
        </mxCell>
        <mxCell id="dx4kDYZYSqJPcaJjK1-D-96" style="edgeStyle=orthogonalEdgeStyle;rounded=0;orthogonalLoop=1;jettySize=auto;html=1;startArrow=oval;startFill=1;strokeColor=#00FF00;fontSize=20;entryX=0;entryY=0.25;entryDx=0;entryDy=0;" parent="1" target="dx4kDYZYSqJPcaJjK1-D-98" edge="1">
          <mxGeometry relative="1" as="geometry">
            <mxPoint x="1520" y="540" as="sourcePoint" />
            <Array as="points">
              <mxPoint x="1560" y="540" />
              <mxPoint x="1560" y="540" />
            </Array>
            <mxPoint x="1640" y="550" as="targetPoint" />
          </mxGeometry>
        </mxCell>
        <mxCell id="dx4kDYZYSqJPcaJjK1-D-97" style="edgeStyle=orthogonalEdgeStyle;rounded=0;orthogonalLoop=1;jettySize=auto;html=1;exitX=1;exitY=0.25;exitDx=0;exitDy=0;" parent="1" source="dx4kDYZYSqJPcaJjK1-D-98" edge="1">
          <mxGeometry relative="1" as="geometry">
            <mxPoint x="1920" y="540.3333333333335" as="targetPoint" />
          </mxGeometry>
        </mxCell>
        <mxCell id="dx4kDYZYSqJPcaJjK1-D-98" value="&lt;font style=&quot;font-size: 20px;&quot;&gt;valid_pipe: dff&lt;br style=&quot;font-size: 20px;&quot;&gt;&lt;/font&gt;" style="rounded=0;whiteSpace=wrap;html=1;fontSize=20;" parent="1" vertex="1">
          <mxGeometry x="1650" y="530" width="210" height="40" as="geometry" />
        </mxCell>
        <mxCell id="dx4kDYZYSqJPcaJjK1-D-99" value="" style="triangle;whiteSpace=wrap;html=1;direction=west;fontSize=20;" parent="1" vertex="1">
          <mxGeometry x="1840.5" y="550" width="19.5" height="20.5" as="geometry" />
        </mxCell>
        <mxCell id="dx4kDYZYSqJPcaJjK1-D-100" style="edgeStyle=orthogonalEdgeStyle;rounded=0;orthogonalLoop=1;jettySize=auto;html=1;exitX=0;exitY=0.25;exitDx=0;exitDy=0;exitPerimeter=0;endArrow=oval;endFill=1;strokeColor=#00FF00;fontSize=20;" parent="1" source="dx4kDYZYSqJPcaJjK1-D-102" edge="1">
          <mxGeometry relative="1" as="geometry">
            <mxPoint x="40" y="550" as="targetPoint" />
            <mxPoint x="159.99999999999977" y="540" as="sourcePoint" />
          </mxGeometry>
        </mxCell>
        <mxCell id="dx4kDYZYSqJPcaJjK1-D-101" style="edgeStyle=orthogonalEdgeStyle;rounded=0;orthogonalLoop=1;jettySize=auto;html=1;exitX=0;exitY=0.75;exitDx=0;exitDy=0;exitPerimeter=0;endArrow=none;endFill=0;fontSize=20;" parent="1" source="dx4kDYZYSqJPcaJjK1-D-102" edge="1">
          <mxGeometry relative="1" as="geometry">
            <mxPoint x="-120" y="570" as="targetPoint" />
            <Array as="points">
              <mxPoint x="-120" y="570" />
            </Array>
          </mxGeometry>
        </mxCell>
        <mxCell id="dx4kDYZYSqJPcaJjK1-D-102" value="" style="verticalLabelPosition=bottom;shadow=0;dashed=0;align=center;html=1;verticalAlign=top;shape=mxgraph.electrical.logic_gates.logic_gate;operation=and;fontSize=20;" parent="1" vertex="1">
          <mxGeometry x="140" y="540" width="60" height="40" as="geometry" />
        </mxCell>
        <mxCell id="dx4kDYZYSqJPcaJjK1-D-103" value="&lt;font style=&quot;font-size: 20px;&quot;&gt;counter_clear_n&lt;/font&gt;" style="text;html=1;align=right;verticalAlign=middle;resizable=0;points=[];autosize=1;strokeColor=none;fillColor=none;fontSize=20;" parent="1" vertex="1">
          <mxGeometry x="-310" y="550" width="170" height="40" as="geometry" />
        </mxCell>
        <mxCell id="dx4kDYZYSqJPcaJjK1-D-104" style="edgeStyle=orthogonalEdgeStyle;rounded=0;orthogonalLoop=1;jettySize=auto;html=1;exitX=0;exitY=0.75;exitDx=0;exitDy=0;exitPerimeter=0;endArrow=none;endFill=0;strokeColor=#00FF00;fontSize=20;" parent="1" source="dx4kDYZYSqJPcaJjK1-D-114" edge="1">
          <mxGeometry relative="1" as="geometry">
            <mxPoint x="280" y="360" as="targetPoint" />
            <mxPoint x="368" y="480" as="sourcePoint" />
            <Array as="points">
              <mxPoint x="280" y="450" />
            </Array>
          </mxGeometry>
        </mxCell>
        <mxCell id="dx4kDYZYSqJPcaJjK1-D-105" style="edgeStyle=orthogonalEdgeStyle;rounded=0;orthogonalLoop=1;jettySize=auto;html=1;exitX=0;exitY=0.25;exitDx=0;exitDy=0;exitPerimeter=0;endArrow=none;endFill=0;fontSize=20;" parent="1" source="dx4kDYZYSqJPcaJjK1-D-114" edge="1">
          <mxGeometry relative="1" as="geometry">
            <mxPoint x="-120" y="430" as="targetPoint" />
            <mxPoint x="408" y="430" as="sourcePoint" />
          </mxGeometry>
        </mxCell>
        <mxCell id="dx4kDYZYSqJPcaJjK1-D-106" value="&lt;font style=&quot;font-size: 20px;&quot;&gt;counter_enable&lt;/font&gt;" style="text;html=1;align=right;verticalAlign=middle;resizable=0;points=[];autosize=1;strokeColor=none;fillColor=none;fontSize=20;" parent="1" vertex="1">
          <mxGeometry x="-300" y="410" width="160" height="40" as="geometry" />
        </mxCell>
        <mxCell id="dx4kDYZYSqJPcaJjK1-D-107" value="" style="endArrow=classic;html=1;rounded=0;startArrow=oval;startFill=1;fontSize=20;" parent="1" edge="1">
          <mxGeometry width="50" height="50" relative="1" as="geometry">
            <mxPoint x="840" y="440" as="sourcePoint" />
            <mxPoint x="1920" y="439.52" as="targetPoint" />
          </mxGeometry>
        </mxCell>
        <mxCell id="dx4kDYZYSqJPcaJjK1-D-108" value="&lt;font style=&quot;font-size: 20px;&quot;&gt;counter_out&lt;/font&gt;" style="text;html=1;align=left;verticalAlign=middle;resizable=0;points=[];autosize=1;strokeColor=none;fillColor=none;fontSize=20;" parent="1" vertex="1">
          <mxGeometry x="1928.5" y="420" width="130" height="40" as="geometry" />
        </mxCell>
        <mxCell id="dx4kDYZYSqJPcaJjK1-D-109" value="" style="endArrow=none;html=1;rounded=0;endFill=0;entryX=0;entryY=0.75;entryDx=0;entryDy=0;entryPerimeter=0;fontSize=20;" parent="1" target="dx4kDYZYSqJPcaJjK1-D-115" edge="1">
          <mxGeometry width="50" height="50" relative="1" as="geometry">
            <mxPoint x="-120" y="510" as="sourcePoint" />
            <mxPoint x="340" y="510" as="targetPoint" />
          </mxGeometry>
        </mxCell>
        <mxCell id="dx4kDYZYSqJPcaJjK1-D-110" value="&lt;font style=&quot;font-size: 20px;&quot;&gt;counter_up_downN&lt;/font&gt;" style="text;html=1;align=right;verticalAlign=middle;resizable=0;points=[];autosize=1;strokeColor=none;fillColor=none;fontSize=20;" parent="1" vertex="1">
          <mxGeometry x="-340" y="490" width="200" height="40" as="geometry" />
        </mxCell>
        <mxCell id="dx4kDYZYSqJPcaJjK1-D-111" value="&lt;font style=&quot;font-size: 20px;&quot;&gt;up_downN&lt;/font&gt;" style="text;html=1;align=left;verticalAlign=middle;resizable=0;points=[];autosize=1;strokeColor=none;fillColor=none;fontSize=20;" parent="1" vertex="1">
          <mxGeometry x="485" y="480" width="120" height="40" as="geometry" />
        </mxCell>
        <mxCell id="dx4kDYZYSqJPcaJjK1-D-112" style="edgeStyle=orthogonalEdgeStyle;rounded=0;orthogonalLoop=1;jettySize=auto;html=1;endArrow=none;endFill=0;strokeColor=#00FF00;startArrow=oval;startFill=1;entryX=0;entryY=0.25;entryDx=0;entryDy=0;entryPerimeter=0;fontSize=20;" parent="1" edge="1">
          <mxGeometry relative="1" as="geometry">
            <mxPoint x="300" y="490" as="targetPoint" />
            <mxPoint x="280" y="450" as="sourcePoint" />
            <Array as="points">
              <mxPoint x="280" y="490" />
            </Array>
          </mxGeometry>
        </mxCell>
        <mxCell id="dx4kDYZYSqJPcaJjK1-D-113" style="edgeStyle=orthogonalEdgeStyle;rounded=0;orthogonalLoop=1;jettySize=auto;html=1;exitX=1;exitY=0.5;exitDx=0;exitDy=0;exitPerimeter=0;fontSize=20;" parent="1" source="dx4kDYZYSqJPcaJjK1-D-115" edge="1">
          <mxGeometry relative="1" as="geometry">
            <mxPoint x="480" y="500" as="targetPoint" />
            <mxPoint x="400" y="500" as="sourcePoint" />
          </mxGeometry>
        </mxCell>
        <mxCell id="dx4kDYZYSqJPcaJjK1-D-114" value="" style="verticalLabelPosition=bottom;shadow=0;dashed=0;align=center;html=1;verticalAlign=top;shape=mxgraph.electrical.logic_gates.logic_gate;operation=or;fontSize=20;" parent="1" vertex="1">
          <mxGeometry x="370" y="420" width="60" height="40" as="geometry" />
        </mxCell>
        <mxCell id="dx4kDYZYSqJPcaJjK1-D-115" value="" style="verticalLabelPosition=bottom;shadow=0;dashed=0;align=center;html=1;verticalAlign=top;shape=mxgraph.electrical.logic_gates.logic_gate;operation=or;fontSize=20;" parent="1" vertex="1">
          <mxGeometry x="300" y="480" width="60" height="40" as="geometry" />
        </mxCell>
        <mxCell id="dx4kDYZYSqJPcaJjK1-D-116" value="" style="triangle;whiteSpace=wrap;html=1;direction=west;fontSize=20;strokeColor=default;strokeWidth=1;fillColor=#0000FF;" parent="1" vertex="1">
          <mxGeometry x="780" y="659.25" width="20" height="20" as="geometry" />
        </mxCell>
        <mxCell id="dx4kDYZYSqJPcaJjK1-D-117" value="" style="triangle;whiteSpace=wrap;html=1;direction=west;fontSize=20;strokeColor=default;strokeWidth=1;fillColor=#0000FF;" parent="1" vertex="1">
          <mxGeometry x="1140" y="870" width="20" height="20" as="geometry" />
        </mxCell>
        <mxCell id="dx4kDYZYSqJPcaJjK1-D-118" value="" style="triangle;whiteSpace=wrap;html=1;direction=west;fontSize=20;strokeColor=default;strokeWidth=1;fillColor=#0000FF;" parent="1" vertex="1">
          <mxGeometry x="400" y="1019.1300000000001" width="20" height="20" as="geometry" />
        </mxCell>
        <mxCell id="dx4kDYZYSqJPcaJjK1-D-119" value="" style="triangle;whiteSpace=wrap;html=1;direction=west;fontSize=20;strokeColor=default;strokeWidth=1;fillColor=#0000FF;" parent="1" vertex="1">
          <mxGeometry x="400" y="1300" width="20" height="20" as="geometry" />
        </mxCell>
        <mxCell id="dx4kDYZYSqJPcaJjK1-D-120" value="" style="endArrow=classic;html=1;rounded=0;" parent="1" source="dx4kDYZYSqJPcaJjK1-D-122" edge="1">
          <mxGeometry width="50" height="50" relative="1" as="geometry">
            <mxPoint x="-120" y="800" as="sourcePoint" />
            <mxPoint x="-80" y="800" as="targetPoint" />
          </mxGeometry>
        </mxCell>
        <mxCell id="dx4kDYZYSqJPcaJjK1-D-121" value="" style="endArrow=classic;html=1;rounded=0;" parent="1" target="dx4kDYZYSqJPcaJjK1-D-122" edge="1">
          <mxGeometry width="50" height="50" relative="1" as="geometry">
            <mxPoint x="-120" y="800" as="sourcePoint" />
            <mxPoint x="-80" y="800" as="targetPoint" />
          </mxGeometry>
        </mxCell>
        <mxCell id="dx4kDYZYSqJPcaJjK1-D-122" value="" style="triangle;whiteSpace=wrap;html=1;direction=east;fontSize=20;strokeColor=default;strokeWidth=1;fillColor=#0000FF;" parent="1" vertex="1">
          <mxGeometry x="-80" y="790" width="20" height="20" as="geometry" />
        </mxCell>
        <mxCell id="dx4kDYZYSqJPcaJjK1-D-123" value="&lt;font color=&quot;#999999&quot;&gt;din11_enable&lt;/font&gt;" style="text;html=1;align=left;verticalAlign=middle;resizable=0;points=[];autosize=1;strokeColor=none;fillColor=none;fontSize=20;" parent="1" vertex="1">
          <mxGeometry x="710" y="825" width="140" height="40" as="geometry" />
        </mxCell>
        <mxCell id="dx4kDYZYSqJPcaJjK1-D-124" style="edgeStyle=orthogonalEdgeStyle;rounded=0;orthogonalLoop=1;jettySize=auto;html=1;exitX=1;exitY=0.25;exitDx=0;exitDy=0;" parent="1" source="dx4kDYZYSqJPcaJjK1-D-126" edge="1">
          <mxGeometry relative="1" as="geometry">
            <mxPoint x="1280" y="940.3636363636363" as="targetPoint" />
          </mxGeometry>
        </mxCell>
        <mxCell id="dx4kDYZYSqJPcaJjK1-D-125" style="edgeStyle=orthogonalEdgeStyle;rounded=0;orthogonalLoop=1;jettySize=auto;html=1;exitX=0;exitY=0.75;exitDx=0;exitDy=0;entryX=0;entryY=0.75;entryDx=0;entryDy=0;startArrow=oval;startFill=1;" parent="1" target="dx4kDYZYSqJPcaJjK1-D-126" edge="1">
          <mxGeometry relative="1" as="geometry">
            <mxPoint x="880" y="960" as="sourcePoint" />
            <Array as="points">
              <mxPoint x="900" y="960" />
              <mxPoint x="900" y="960" />
            </Array>
          </mxGeometry>
        </mxCell>
        <mxCell id="dx4kDYZYSqJPcaJjK1-D-126" value="&lt;font style=&quot;font-size: 20px;&quot;&gt;din10: register&lt;br style=&quot;font-size: 20px;&quot;&gt;&lt;/font&gt;" style="rounded=0;whiteSpace=wrap;html=1;fontSize=20;" parent="1" vertex="1">
          <mxGeometry x="920" y="930" width="240" height="40" as="geometry" />
        </mxCell>
        <mxCell id="dx4kDYZYSqJPcaJjK1-D-127" value="" style="triangle;whiteSpace=wrap;html=1;direction=west;fontSize=20;strokeColor=default;strokeWidth=1;fillColor=#0000FF;" parent="1" vertex="1">
          <mxGeometry x="1140" y="950" width="20" height="20" as="geometry" />
        </mxCell>
        <mxCell id="dx4kDYZYSqJPcaJjK1-D-128" style="edgeStyle=orthogonalEdgeStyle;rounded=0;orthogonalLoop=1;jettySize=auto;html=1;exitX=0;exitY=0.75;exitDx=0;exitDy=0;entryX=0;entryY=0.75;entryDx=0;entryDy=0;startArrow=oval;startFill=1;" parent="1" target="dx4kDYZYSqJPcaJjK1-D-131" edge="1">
          <mxGeometry relative="1" as="geometry">
            <mxPoint x="880" y="1040" as="sourcePoint" />
            <Array as="points">
              <mxPoint x="900" y="1040" />
              <mxPoint x="900" y="1040" />
            </Array>
          </mxGeometry>
        </mxCell>
        <mxCell id="dx4kDYZYSqJPcaJjK1-D-129" style="edgeStyle=orthogonalEdgeStyle;rounded=0;orthogonalLoop=1;jettySize=auto;html=1;entryX=0;entryY=0.25;entryDx=0;entryDy=0;" parent="1" target="dx4kDYZYSqJPcaJjK1-D-131" edge="1">
          <mxGeometry relative="1" as="geometry">
            <mxPoint x="700" y="1020" as="sourcePoint" />
            <Array as="points">
              <mxPoint x="750" y="1020" />
              <mxPoint x="750" y="1020" />
            </Array>
          </mxGeometry>
        </mxCell>
        <mxCell id="dx4kDYZYSqJPcaJjK1-D-130" style="edgeStyle=orthogonalEdgeStyle;rounded=0;orthogonalLoop=1;jettySize=auto;html=1;exitX=1;exitY=0.25;exitDx=0;exitDy=0;" parent="1" source="dx4kDYZYSqJPcaJjK1-D-131" edge="1">
          <mxGeometry relative="1" as="geometry">
            <mxPoint x="1280" y="1019.939393939394" as="targetPoint" />
          </mxGeometry>
        </mxCell>
        <mxCell id="dx4kDYZYSqJPcaJjK1-D-131" value="&lt;font style=&quot;font-size: 20px;&quot;&gt;din01: register&lt;br style=&quot;font-size: 20px;&quot;&gt;&lt;/font&gt;" style="rounded=0;whiteSpace=wrap;html=1;fontSize=20;" parent="1" vertex="1">
          <mxGeometry x="920" y="1010" width="240" height="40" as="geometry" />
        </mxCell>
        <mxCell id="dx4kDYZYSqJPcaJjK1-D-132" value="" style="triangle;whiteSpace=wrap;html=1;direction=west;fontSize=20;strokeColor=default;strokeWidth=1;fillColor=#0000FF;" parent="1" vertex="1">
          <mxGeometry x="1140" y="1030" width="20" height="20" as="geometry" />
        </mxCell>
        <mxCell id="dx4kDYZYSqJPcaJjK1-D-133" value="&lt;font color=&quot;#999999&quot;&gt;din10_enable&lt;/font&gt;" style="text;html=1;align=left;verticalAlign=middle;resizable=0;points=[];autosize=1;strokeColor=none;fillColor=none;fontSize=20;" parent="1" vertex="1">
          <mxGeometry x="710" y="905" width="140" height="40" as="geometry" />
        </mxCell>
        <mxCell id="dx4kDYZYSqJPcaJjK1-D-134" value="&lt;font color=&quot;#999999&quot;&gt;din01_enable&lt;/font&gt;" style="text;html=1;align=left;verticalAlign=middle;resizable=0;points=[];autosize=1;strokeColor=none;fillColor=none;fontSize=20;" parent="1" vertex="1">
          <mxGeometry x="710" y="985" width="140" height="40" as="geometry" />
        </mxCell>
        <mxCell id="dx4kDYZYSqJPcaJjK1-D-135" style="edgeStyle=orthogonalEdgeStyle;rounded=0;orthogonalLoop=1;jettySize=auto;html=1;exitX=0;exitY=0.75;exitDx=0;exitDy=0;entryX=0;entryY=0.75;entryDx=0;entryDy=0;startArrow=oval;startFill=1;" parent="1" target="dx4kDYZYSqJPcaJjK1-D-137" edge="1">
          <mxGeometry relative="1" as="geometry">
            <mxPoint x="880" y="1359" as="sourcePoint" />
            <Array as="points">
              <mxPoint x="900" y="1359" />
              <mxPoint x="900" y="1359" />
            </Array>
          </mxGeometry>
        </mxCell>
        <mxCell id="dx4kDYZYSqJPcaJjK1-D-136" style="edgeStyle=orthogonalEdgeStyle;rounded=0;orthogonalLoop=1;jettySize=auto;html=1;exitX=1;exitY=0.25;exitDx=0;exitDy=0;" parent="1" source="dx4kDYZYSqJPcaJjK1-D-137" edge="1">
          <mxGeometry relative="1" as="geometry">
            <mxPoint x="1280" y="1100" as="targetPoint" />
            <Array as="points">
              <mxPoint x="1200" y="1340" />
              <mxPoint x="1200" y="1100" />
            </Array>
          </mxGeometry>
        </mxCell>
        <mxCell id="dx4kDYZYSqJPcaJjK1-D-137" value="&lt;font style=&quot;font-size: 20px;&quot;&gt;din00: register&lt;br style=&quot;font-size: 20px;&quot;&gt;&lt;/font&gt;" style="rounded=0;whiteSpace=wrap;html=1;fontSize=20;" parent="1" vertex="1">
          <mxGeometry x="920" y="1330" width="240" height="40" as="geometry" />
        </mxCell>
        <mxCell id="dx4kDYZYSqJPcaJjK1-D-138" value="" style="triangle;whiteSpace=wrap;html=1;direction=west;fontSize=20;strokeColor=default;strokeWidth=1;fillColor=#0000FF;" parent="1" vertex="1">
          <mxGeometry x="1140" y="1350" width="20" height="20" as="geometry" />
        </mxCell>
        <mxCell id="dx4kDYZYSqJPcaJjK1-D-139" style="edgeStyle=orthogonalEdgeStyle;rounded=0;orthogonalLoop=1;jettySize=auto;html=1;exitX=0;exitY=0.25;exitDx=0;exitDy=0;exitPerimeter=0;endArrow=none;endFill=0;" parent="1" source="dx4kDYZYSqJPcaJjK1-D-141" edge="1">
          <mxGeometry relative="1" as="geometry">
            <mxPoint x="700" y="1100" as="targetPoint" />
            <Array as="points">
              <mxPoint x="840" y="1100" />
            </Array>
          </mxGeometry>
        </mxCell>
        <mxCell id="dx4kDYZYSqJPcaJjK1-D-140" style="edgeStyle=orthogonalEdgeStyle;rounded=0;orthogonalLoop=1;jettySize=auto;html=1;exitX=1;exitY=0.5;exitDx=0;exitDy=0;exitPerimeter=0;entryX=0;entryY=0.25;entryDx=0;entryDy=0;" parent="1" source="dx4kDYZYSqJPcaJjK1-D-141" target="dx4kDYZYSqJPcaJjK1-D-137" edge="1">
          <mxGeometry relative="1" as="geometry" />
        </mxCell>
        <mxCell id="dx4kDYZYSqJPcaJjK1-D-141" value="" style="verticalLabelPosition=bottom;shadow=0;dashed=0;align=center;html=1;verticalAlign=top;shape=mxgraph.electrical.logic_gates.logic_gate;operation=and;direction=south;fontSize=20;" parent="1" vertex="1">
          <mxGeometry x="810" y="1170" width="40" height="60" as="geometry" />
        </mxCell>
        <mxCell id="dx4kDYZYSqJPcaJjK1-D-142" style="edgeStyle=orthogonalEdgeStyle;rounded=0;orthogonalLoop=1;jettySize=auto;html=1;exitX=0;exitY=0.75;exitDx=0;exitDy=0;exitPerimeter=0;endArrow=oval;endFill=1;strokeColor=#00FF00;fontSize=20;" parent="1" source="dx4kDYZYSqJPcaJjK1-D-141" edge="1">
          <mxGeometry relative="1" as="geometry">
            <mxPoint x="100" y="1160" as="targetPoint" />
            <Array as="points">
              <mxPoint x="820" y="1160" />
            </Array>
            <mxPoint x="740" y="1190" as="sourcePoint" />
          </mxGeometry>
        </mxCell>
        <mxCell id="dx4kDYZYSqJPcaJjK1-D-143" value="&lt;font color=&quot;#999999&quot;&gt;din00_enable&lt;/font&gt;" style="text;html=1;align=left;verticalAlign=middle;resizable=0;points=[];autosize=1;strokeColor=none;fillColor=none;fontSize=20;" parent="1" vertex="1">
          <mxGeometry x="710" y="1065" width="140" height="40" as="geometry" />
        </mxCell>
        <mxCell id="dx4kDYZYSqJPcaJjK1-D-144" style="edgeStyle=orthogonalEdgeStyle;rounded=0;orthogonalLoop=1;jettySize=auto;html=1;exitX=1;exitY=0.25;exitDx=0;exitDy=0;" parent="1" source="dx4kDYZYSqJPcaJjK1-D-145" edge="1">
          <mxGeometry relative="1" as="geometry">
            <mxPoint x="1920" y="610" as="targetPoint" />
          </mxGeometry>
        </mxCell>
        <mxCell id="dx4kDYZYSqJPcaJjK1-D-145" value="&lt;font style=&quot;font-size: 20px;&quot;&gt;busy_pipe: dff&lt;br style=&quot;font-size: 20px;&quot;&gt;&lt;/font&gt;" style="rounded=0;whiteSpace=wrap;html=1;fontSize=20;" parent="1" vertex="1">
          <mxGeometry x="1650" y="600" width="210" height="40" as="geometry" />
        </mxCell>
        <mxCell id="dx4kDYZYSqJPcaJjK1-D-146" value="" style="triangle;whiteSpace=wrap;html=1;direction=west;fontSize=20;" parent="1" vertex="1">
          <mxGeometry x="1840.5" y="619.5" width="19.5" height="20.5" as="geometry" />
        </mxCell>
        <mxCell id="dx4kDYZYSqJPcaJjK1-D-147" style="edgeStyle=orthogonalEdgeStyle;rounded=0;orthogonalLoop=1;jettySize=auto;html=1;startArrow=oval;startFill=1;strokeColor=#00FF00;fontSize=20;entryX=0;entryY=0.25;entryDx=0;entryDy=0;" parent="1" target="dx4kDYZYSqJPcaJjK1-D-145" edge="1">
          <mxGeometry relative="1" as="geometry">
            <mxPoint x="1520" y="609.5" as="sourcePoint" />
            <Array as="points" />
            <mxPoint x="1630" y="610" as="targetPoint" />
          </mxGeometry>
        </mxCell>
        <mxCell id="dx4kDYZYSqJPcaJjK1-D-148" value="" style="triangle;whiteSpace=wrap;html=1;direction=west;fontSize=20;" parent="1" vertex="1">
          <mxGeometry x="1580" y="990" width="20" height="20" as="geometry" />
        </mxCell>
        <mxCell id="dx4kDYZYSqJPcaJjK1-D-149" value="" style="triangle;whiteSpace=wrap;html=1;direction=west;fontSize=20;" parent="1" vertex="1">
          <mxGeometry x="1840" y="990" width="20" height="20" as="geometry" />
        </mxCell>
      </root>
    </mxGraphModel>
  </diagram>
  <diagram id="qkVc8kHNUviNvPrgHG_d" name="FSM">
    <mxGraphModel dx="2646" dy="1009" grid="1" gridSize="10" guides="1" tooltips="1" connect="1" arrows="1" fold="1" page="1" pageScale="1" pageWidth="850" pageHeight="1100" math="0" shadow="0">
      <root>
        <mxCell id="0" />
        <mxCell id="1" parent="0" />
        <mxCell id="e-uHOs18rgHkM9nfDmXO-1" value="1" style="edgeStyle=orthogonalEdgeStyle;rounded=0;orthogonalLoop=1;jettySize=auto;html=1;exitX=0.5;exitY=1;exitDx=0;exitDy=0;fontSize=20;" parent="1" source="e-uHOs18rgHkM9nfDmXO-15" edge="1">
          <mxGeometry x="-0.0054" relative="1" as="geometry">
            <mxPoint x="-740" y="360" as="sourcePoint" />
            <mxPoint as="offset" />
            <mxPoint x="-740" y="380" as="targetPoint" />
          </mxGeometry>
        </mxCell>
        <mxCell id="e-uHOs18rgHkM9nfDmXO-2" style="edgeStyle=orthogonalEdgeStyle;rounded=0;orthogonalLoop=1;jettySize=auto;html=1;entryX=0.75;entryY=0;entryDx=0;entryDy=0;fontSize=20;" parent="1" target="e-uHOs18rgHkM9nfDmXO-6" edge="1">
          <mxGeometry relative="1" as="geometry">
            <mxPoint x="-120" y="160" as="sourcePoint" />
            <Array as="points">
              <mxPoint x="-120" y="190" />
              <mxPoint x="-120" y="190" />
            </Array>
          </mxGeometry>
        </mxCell>
        <mxCell id="e-uHOs18rgHkM9nfDmXO-4" value="&lt;font style=&quot;font-size: 20px;&quot;&gt;outpipe_clear_n&lt;/font&gt;&lt;div style=&quot;font-size: 20px;&quot;&gt;&lt;font style=&quot;font-size: 20px;&quot;&gt;system_clear_n&lt;font style=&quot;font-size: 20px;&quot;&gt;&lt;br style=&quot;font-size: 20px;&quot;&gt;&lt;/font&gt;&lt;/font&gt;&lt;/div&gt;" style="rounded=0;whiteSpace=wrap;html=1;fontSize=20;" parent="1" vertex="1">
          <mxGeometry x="-300" y="260" width="240" height="80" as="geometry" />
        </mxCell>
        <mxCell id="e-uHOs18rgHkM9nfDmXO-5" style="edgeStyle=orthogonalEdgeStyle;rounded=0;orthogonalLoop=1;jettySize=auto;html=1;entryX=0.5;entryY=0;entryDx=0;entryDy=0;dashed=1;fontSize=20;" parent="1" target="e-uHOs18rgHkM9nfDmXO-6" edge="1">
          <mxGeometry relative="1" as="geometry">
            <mxPoint x="-180" y="160" as="sourcePoint" />
            <Array as="points">
              <mxPoint x="-180" y="190" />
              <mxPoint x="-180" y="190" />
            </Array>
          </mxGeometry>
        </mxCell>
        <mxCell id="8-VvC4zplE-U98ebma8n-3" style="edgeStyle=orthogonalEdgeStyle;rounded=0;orthogonalLoop=1;jettySize=auto;html=1;exitX=0.25;exitY=0;exitDx=0;exitDy=0;" edge="1" parent="1" source="e-uHOs18rgHkM9nfDmXO-6">
          <mxGeometry relative="1" as="geometry">
            <mxPoint x="-470" y="180" as="targetPoint" />
            <Array as="points">
              <mxPoint x="-240" y="180" />
            </Array>
          </mxGeometry>
        </mxCell>
        <mxCell id="e-uHOs18rgHkM9nfDmXO-6" value="&lt;font style=&quot;font-size: 20px;&quot;&gt;RESET&lt;/font&gt;" style="rounded=0;whiteSpace=wrap;html=1;fontSize=20;" parent="1" vertex="1">
          <mxGeometry x="-300" y="220" width="240" height="40" as="geometry" />
        </mxCell>
        <mxCell id="e-uHOs18rgHkM9nfDmXO-7" value="&lt;font style=&quot;font-size: 20px;&quot;&gt;rst_n&lt;/font&gt;" style="text;html=1;align=left;verticalAlign=middle;resizable=0;points=[];autosize=1;strokeColor=none;fillColor=none;fontSize=20;rotation=-90;" parent="1" vertex="1">
          <mxGeometry x="-215" y="95" width="70" height="40" as="geometry" />
        </mxCell>
        <mxCell id="e-uHOs18rgHkM9nfDmXO-8" style="edgeStyle=orthogonalEdgeStyle;rounded=0;orthogonalLoop=1;jettySize=auto;html=1;exitX=1;exitY=0.5;exitDx=0;exitDy=0;entryX=0;entryY=0.5;entryDx=0;entryDy=0;fontSize=20;" parent="1" source="e-uHOs18rgHkM9nfDmXO-9" target="e-uHOs18rgHkM9nfDmXO-13" edge="1">
          <mxGeometry relative="1" as="geometry">
            <mxPoint x="-480.04" y="420" as="sourcePoint" />
          </mxGeometry>
        </mxCell>
        <mxCell id="e-uHOs18rgHkM9nfDmXO-9" value="&lt;div style=&quot;font-size: 20px;&quot;&gt;&lt;font style=&quot;font-size: 20px;&quot;&gt;system_enable&lt;/font&gt;&lt;/div&gt;&lt;div style=&quot;font-size: 20px;&quot;&gt;burstlen_enable&lt;br style=&quot;font-size: 20px;&quot;&gt;&lt;/div&gt;&lt;div style=&quot;font-size: 20px;&quot;&gt;outpipe_enable&lt;br style=&quot;font-size: 20px;&quot;&gt;&lt;/div&gt;" style="rounded=0;whiteSpace=wrap;html=1;fontSize=20;" parent="1" vertex="1">
          <mxGeometry x="-840" y="460" width="200" height="80" as="geometry" />
        </mxCell>
        <mxCell id="SMX1Ht1OX-205fneajAl-1" style="edgeStyle=orthogonalEdgeStyle;rounded=0;orthogonalLoop=1;jettySize=auto;html=1;exitX=0.5;exitY=0;exitDx=0;exitDy=0;entryX=0.5;entryY=0;entryDx=0;entryDy=0;" edge="1" parent="1" target="e-uHOs18rgHkM9nfDmXO-10">
          <mxGeometry relative="1" as="geometry">
            <mxPoint x="-739.9565217391304" y="380.0000000000002" as="sourcePoint" />
            <Array as="points">
              <mxPoint x="-740" y="400" />
              <mxPoint x="-740" y="400" />
            </Array>
          </mxGeometry>
        </mxCell>
        <mxCell id="e-uHOs18rgHkM9nfDmXO-10" value="&lt;font style=&quot;font-size: 20px;&quot;&gt;IDLE&lt;/font&gt;" style="rounded=0;whiteSpace=wrap;html=1;fontSize=20;" parent="1" vertex="1">
          <mxGeometry x="-840" y="420" width="200" height="40" as="geometry" />
        </mxCell>
        <mxCell id="e-uHOs18rgHkM9nfDmXO-11" value="0" style="edgeStyle=orthogonalEdgeStyle;rounded=0;orthogonalLoop=1;jettySize=auto;html=1;exitX=0.5;exitY=0;exitDx=0;exitDy=0;fontSize=20;" parent="1" source="e-uHOs18rgHkM9nfDmXO-13" edge="1">
          <mxGeometry x="-0.8571" relative="1" as="geometry">
            <mxPoint x="-740" y="380" as="targetPoint" />
            <Array as="points">
              <mxPoint x="-470" y="380" />
            </Array>
            <mxPoint as="offset" />
          </mxGeometry>
        </mxCell>
        <mxCell id="e-uHOs18rgHkM9nfDmXO-12" value="1" style="edgeStyle=orthogonalEdgeStyle;rounded=0;orthogonalLoop=1;jettySize=auto;html=1;exitX=1;exitY=0.5;exitDx=0;exitDy=0;fontSize=20;" parent="1" source="e-uHOs18rgHkM9nfDmXO-13" edge="1">
          <mxGeometry x="-0.2889" relative="1" as="geometry">
            <mxPoint x="-300" y="500" as="targetPoint" />
            <mxPoint as="offset" />
          </mxGeometry>
        </mxCell>
        <mxCell id="e-uHOs18rgHkM9nfDmXO-13" value="&lt;font style=&quot;font-size: 20px;&quot;&gt;start_sampling&lt;/font&gt;" style="rhombus;whiteSpace=wrap;html=1;fontSize=20;" parent="1" vertex="1">
          <mxGeometry x="-560" y="460" width="180" height="80" as="geometry" />
        </mxCell>
        <mxCell id="e-uHOs18rgHkM9nfDmXO-14" value="0" style="edgeStyle=orthogonalEdgeStyle;rounded=0;orthogonalLoop=1;jettySize=auto;html=1;exitX=1;exitY=0.5;exitDx=0;exitDy=0;fontSize=20;entryX=0;entryY=0;entryDx=0;entryDy=0;" parent="1" source="e-uHOs18rgHkM9nfDmXO-15" target="e-uHOs18rgHkM9nfDmXO-30" edge="1">
          <mxGeometry x="-0.2" relative="1" as="geometry">
            <mxPoint x="-560" y="280" as="targetPoint" />
            <Array as="points">
              <mxPoint x="-600" y="280" />
              <mxPoint x="-600" y="280" />
            </Array>
            <mxPoint as="offset" />
          </mxGeometry>
        </mxCell>
        <mxCell id="e-uHOs18rgHkM9nfDmXO-15" value="&lt;font style=&quot;font-size: 20px;&quot;&gt;enable&lt;/font&gt;" style="rhombus;whiteSpace=wrap;html=1;fontSize=20;" parent="1" vertex="1">
          <mxGeometry x="-820" y="240" width="160" height="80" as="geometry" />
        </mxCell>
        <mxCell id="8-VvC4zplE-U98ebma8n-4" style="edgeStyle=orthogonalEdgeStyle;rounded=0;orthogonalLoop=1;jettySize=auto;html=1;exitX=0.5;exitY=1;exitDx=0;exitDy=0;entryX=0.5;entryY=0;entryDx=0;entryDy=0;" edge="1" parent="1" source="e-uHOs18rgHkM9nfDmXO-16" target="8-VvC4zplE-U98ebma8n-2">
          <mxGeometry relative="1" as="geometry" />
        </mxCell>
        <mxCell id="e-uHOs18rgHkM9nfDmXO-16" value="&lt;div style=&quot;font-size: 20px;&quot;&gt;&lt;font style=&quot;font-size: 20px;&quot;&gt;busy&lt;/font&gt;&lt;/div&gt;&lt;div style=&quot;font-size: 20px;&quot;&gt;&lt;font style=&quot;font-size: 20px;&quot;&gt;system_enable&lt;/font&gt;&lt;/div&gt;&lt;div style=&quot;font-size: 20px;&quot;&gt;outpipe_enable&lt;/div&gt;&lt;div style=&quot;font-size: 20px;&quot;&gt;&lt;font style=&quot;font-size: 20px;&quot;&gt;data_counter_enable&lt;br style=&quot;font-size: 20px;&quot;&gt;&lt;/font&gt;&lt;/div&gt;" style="rounded=0;whiteSpace=wrap;html=1;fontSize=20;" parent="1" vertex="1">
          <mxGeometry x="-300" y="440" width="240" height="110" as="geometry" />
        </mxCell>
        <mxCell id="e-uHOs18rgHkM9nfDmXO-17" value="&lt;font style=&quot;font-size: 20px;&quot;&gt;RECEPTION_INIT&lt;/font&gt;1" style="rounded=0;whiteSpace=wrap;html=1;fontSize=20;" parent="1" vertex="1">
          <mxGeometry x="-300" y="400" width="240" height="40" as="geometry" />
        </mxCell>
        <mxCell id="e-uHOs18rgHkM9nfDmXO-18" style="edgeStyle=orthogonalEdgeStyle;rounded=0;orthogonalLoop=1;jettySize=auto;html=1;entryX=1;entryY=0.5;entryDx=0;entryDy=0;fontSize=20;" parent="1" target="e-uHOs18rgHkM9nfDmXO-24" edge="1">
          <mxGeometry relative="1" as="geometry">
            <mxPoint x="-239.95999999999998" y="1000" as="sourcePoint" />
            <Array as="points">
              <mxPoint x="-299.96" y="1000" />
              <mxPoint x="-299.96" y="1000" />
            </Array>
          </mxGeometry>
        </mxCell>
        <mxCell id="e-uHOs18rgHkM9nfDmXO-19" value="&lt;div style=&quot;font-size: 20px;&quot;&gt;&lt;font style=&quot;font-size: 20px;&quot;&gt;busy&lt;/font&gt;&lt;/div&gt;&lt;div style=&quot;font-size: 20px;&quot;&gt;&lt;font style=&quot;font-size: 20px;&quot;&gt;system_enable&lt;/font&gt;&lt;/div&gt;&lt;div style=&quot;font-size: 20px;&quot;&gt;outpipe_enable&lt;/div&gt;&lt;div style=&quot;font-size: 20px;&quot;&gt;&lt;font style=&quot;font-size: 20px;&quot;&gt;outreg_enable&lt;/font&gt;&lt;/div&gt;&lt;div style=&quot;font-size: 20px;&quot;&gt;&lt;font style=&quot;font-size: 20px;&quot;&gt;data_counter_enable&lt;/font&gt;&lt;/div&gt;&lt;div style=&quot;font-size: 20px;&quot;&gt;&lt;font style=&quot;font-size: 20px;&quot;&gt;burstlen_counter_enable&lt;font style=&quot;font-size: 20px;&quot;&gt;&lt;br style=&quot;font-size: 20px;&quot;&gt;&lt;/font&gt;&lt;/font&gt;&lt;/div&gt;&lt;div style=&quot;font-size: 20px;&quot;&gt;validout&lt;br style=&quot;font-size: 20px;&quot;&gt;&lt;/div&gt;" style="rounded=0;whiteSpace=wrap;html=1;fontSize=20;" parent="1" vertex="1">
          <mxGeometry x="-299.96" y="920" width="240" height="180" as="geometry" />
        </mxCell>
        <mxCell id="e-uHOs18rgHkM9nfDmXO-20" value="&lt;font style=&quot;font-size: 20px;&quot;&gt;RECEPTION&lt;/font&gt;" style="rounded=0;whiteSpace=wrap;html=1;fontSize=20;" parent="1" vertex="1">
          <mxGeometry x="-299.96000000000004" y="880" width="240" height="40" as="geometry" />
        </mxCell>
        <mxCell id="e-uHOs18rgHkM9nfDmXO-21" value="" style="endArrow=classic;html=1;rounded=0;fontSize=20;entryX=0.5;entryY=0;entryDx=0;entryDy=0;edgeStyle=orthogonalEdgeStyle;exitX=0.5;exitY=1;exitDx=0;exitDy=0;" parent="1" source="8-VvC4zplE-U98ebma8n-1" target="e-uHOs18rgHkM9nfDmXO-20" edge="1">
          <mxGeometry width="50" height="50" relative="1" as="geometry">
            <mxPoint x="-230" y="780" as="sourcePoint" />
            <mxPoint x="59.99999999999997" y="640" as="targetPoint" />
            <Array as="points">
              <mxPoint x="-180" y="790" />
            </Array>
          </mxGeometry>
        </mxCell>
        <mxCell id="e-uHOs18rgHkM9nfDmXO-22" value="0" style="edgeStyle=orthogonalEdgeStyle;rounded=0;orthogonalLoop=1;jettySize=auto;html=1;exitX=0.5;exitY=0;exitDx=0;exitDy=0;fontSize=20;" parent="1" source="e-uHOs18rgHkM9nfDmXO-24" edge="1">
          <mxGeometry x="-0.8182" relative="1" as="geometry">
            <mxPoint x="-180" y="840" as="targetPoint" />
            <mxPoint as="offset" />
            <Array as="points">
              <mxPoint x="-460" y="840" />
            </Array>
          </mxGeometry>
        </mxCell>
        <mxCell id="e-uHOs18rgHkM9nfDmXO-23" value="1" style="edgeStyle=orthogonalEdgeStyle;rounded=0;orthogonalLoop=1;jettySize=auto;html=1;exitX=0;exitY=0.5;exitDx=0;exitDy=0;fontSize=20;" parent="1" source="e-uHOs18rgHkM9nfDmXO-24" edge="1">
          <mxGeometry x="0.0058" relative="1" as="geometry">
            <mxPoint as="offset" />
            <mxPoint x="-580" y="1000" as="targetPoint" />
          </mxGeometry>
        </mxCell>
        <mxCell id="e-uHOs18rgHkM9nfDmXO-24" value="&lt;font style=&quot;font-size: 20px;&quot;&gt;burst_end&lt;/font&gt;" style="rhombus;whiteSpace=wrap;html=1;fontSize=20;" parent="1" vertex="1">
          <mxGeometry x="-520" y="960" width="120" height="80" as="geometry" />
        </mxCell>
        <mxCell id="e-uHOs18rgHkM9nfDmXO-25" style="edgeStyle=orthogonalEdgeStyle;rounded=0;orthogonalLoop=1;jettySize=auto;html=1;entryX=1;entryY=0.5;entryDx=0;entryDy=0;" parent="1" target="e-uHOs18rgHkM9nfDmXO-26" edge="1">
          <mxGeometry relative="1" as="geometry">
            <mxPoint x="-580" y="1000" as="sourcePoint" />
            <Array as="points">
              <mxPoint x="-610" y="1000" />
              <mxPoint x="-610" y="1000" />
            </Array>
          </mxGeometry>
        </mxCell>
        <mxCell id="e-uHOs18rgHkM9nfDmXO-26" value="&lt;div style=&quot;font-size: 20px;&quot;&gt;&lt;font style=&quot;font-size: 20px;&quot;&gt;&lt;font style=&quot;font-size: 20px;&quot;&gt;system_clear_n&lt;/font&gt;&lt;/font&gt;&lt;/div&gt;&lt;div style=&quot;font-size: 20px;&quot;&gt;&lt;font style=&quot;font-size: 20px;&quot;&gt;outpipe_enable&lt;/font&gt;&lt;/div&gt;" style="rounded=0;whiteSpace=wrap;html=1;fontSize=20;" parent="1" vertex="1">
          <mxGeometry x="-839.96" y="960" width="200" height="80" as="geometry" />
        </mxCell>
        <mxCell id="e-uHOs18rgHkM9nfDmXO-27" style="edgeStyle=orthogonalEdgeStyle;rounded=0;orthogonalLoop=1;jettySize=auto;html=1;exitX=0.5;exitY=0;exitDx=0;exitDy=0;" parent="1" source="e-uHOs18rgHkM9nfDmXO-28" edge="1">
          <mxGeometry relative="1" as="geometry">
            <mxPoint x="-580" y="1000" as="targetPoint" />
            <Array as="points">
              <mxPoint x="-740" y="840" />
              <mxPoint x="-580" y="840" />
            </Array>
          </mxGeometry>
        </mxCell>
        <mxCell id="e-uHOs18rgHkM9nfDmXO-28" value="IDLE_CLEAR" style="rounded=0;whiteSpace=wrap;html=1;fontSize=20;" parent="1" vertex="1">
          <mxGeometry x="-839.96" y="920" width="200" height="40" as="geometry" />
        </mxCell>
        <mxCell id="e-uHOs18rgHkM9nfDmXO-29" value="&lt;font style=&quot;font-size: 20px;&quot;&gt;synch_clear_n&lt;/font&gt;" style="text;html=1;align=left;verticalAlign=middle;resizable=0;points=[];autosize=1;strokeColor=none;fillColor=none;fontSize=20;rotation=-90;" parent="1" vertex="1">
          <mxGeometry x="-195" y="55" width="150" height="40" as="geometry" />
        </mxCell>
        <mxCell id="e-uHOs18rgHkM9nfDmXO-30" value="" style="rounded=0;whiteSpace=wrap;html=1;fontSize=20;" parent="1" vertex="1">
          <mxGeometry x="-560" y="280" width="180" height="40" as="geometry" />
        </mxCell>
        <mxCell id="e-uHOs18rgHkM9nfDmXO-31" style="edgeStyle=orthogonalEdgeStyle;rounded=0;orthogonalLoop=1;jettySize=auto;html=1;fontSize=20;entryX=0.5;entryY=0;entryDx=0;entryDy=0;" parent="1" target="e-uHOs18rgHkM9nfDmXO-15" edge="1">
          <mxGeometry relative="1" as="geometry">
            <mxPoint x="-740" y="180" as="targetPoint" />
            <Array as="points">
              <mxPoint x="-480" y="180" />
              <mxPoint x="-740" y="180" />
            </Array>
            <mxPoint x="-470" y="180" as="sourcePoint" />
          </mxGeometry>
        </mxCell>
        <mxCell id="e-uHOs18rgHkM9nfDmXO-32" style="edgeStyle=orthogonalEdgeStyle;rounded=0;orthogonalLoop=1;jettySize=auto;html=1;exitX=0.5;exitY=0;exitDx=0;exitDy=0;" parent="1" source="e-uHOs18rgHkM9nfDmXO-33" edge="1">
          <mxGeometry relative="1" as="geometry">
            <mxPoint x="-470" y="180" as="targetPoint" />
          </mxGeometry>
        </mxCell>
        <mxCell id="e-uHOs18rgHkM9nfDmXO-33" value="&lt;font style=&quot;font-size: 20px;&quot;&gt;IDLE_DISABLED&lt;/font&gt;" style="rounded=0;whiteSpace=wrap;html=1;fontSize=20;" parent="1" vertex="1">
          <mxGeometry x="-560" y="240" width="180" height="40" as="geometry" />
        </mxCell>
        <mxCell id="8-VvC4zplE-U98ebma8n-1" value="&lt;div style=&quot;font-size: 20px;&quot;&gt;&lt;font style=&quot;font-size: 20px;&quot;&gt;busy&lt;/font&gt;&lt;/div&gt;&lt;div style=&quot;font-size: 20px;&quot;&gt;&lt;font style=&quot;font-size: 20px;&quot;&gt;system_enable&lt;/font&gt;&lt;/div&gt;&lt;div style=&quot;font-size: 20px;&quot;&gt;outpipe_enable&lt;/div&gt;&lt;div style=&quot;font-size: 20px;&quot;&gt;&lt;font style=&quot;font-size: 20px;&quot;&gt;data_counter_enable&lt;br style=&quot;font-size: 20px;&quot;&gt;&lt;/font&gt;&lt;/div&gt;&lt;div&gt;outreg_enable&lt;/div&gt;&lt;div&gt;burstlen_counter_enable&lt;br&gt;&lt;/div&gt;" style="rounded=0;whiteSpace=wrap;html=1;fontSize=20;" vertex="1" parent="1">
          <mxGeometry x="-299.96000000000004" y="650" width="240" height="150" as="geometry" />
        </mxCell>
        <mxCell id="8-VvC4zplE-U98ebma8n-2" value="&lt;font style=&quot;font-size: 20px;&quot;&gt;RECEPTION_INIT&lt;/font&gt;2" style="rounded=0;whiteSpace=wrap;html=1;fontSize=20;" vertex="1" parent="1">
          <mxGeometry x="-300" y="610" width="240" height="40" as="geometry" />
        </mxCell>
      </root>
    </mxGraphModel>
  </diagram>
</mxfile>
